<svg xmlns="http://www.w3.org/2000/svg" viewBox="0 0 71 71"><defs><style>.cls-1{fill:#0647ff;}</style></defs><title>intrAsset 36</title><g id="Layer_2" data-name="Layer 2"><g id="selected"><path class="cls-1" d="M35.5,71A35.5,35.5,0,1,1,71,35.5,35.55,35.55,0,0,1,35.5,71Zm0-70A34.5,34.5,0,1,0,70,35.5,34.54,34.54,0,0,0,35.5,1Z"/><path class="cls-1" d="M8.61,39.15a2.4,2.4,0,0,1-1.07-.24,2.6,2.6,0,0,1-.83-.64,3.12,3.12,0,0,1-.54-.94,3.4,3.4,0,0,1,0-2.27,3.07,3.07,0,0,1,.55-1,2.61,2.61,0,0,1,.84-.63,2.44,2.44,0,0,1,1.08-.24,2.23,2.23,0,0,1,1.22.33,2.72,2.72,0,0,1,.86.86V33.34H11.8v5.59A2.65,2.65,0,0,1,11.57,40a2.43,2.43,0,0,1-.64.82,3,3,0,0,1-1,.51,3.89,3.89,0,0,1-1.21.17,3.44,3.44,0,0,1-1.59-.32,3.08,3.08,0,0,1-1.06-.91l.68-.64a2.13,2.13,0,0,0,.86.71,2.61,2.61,0,0,0,1.11.24,2.34,2.34,0,0,0,.71-.1,1.52,1.52,0,0,0,.59-.31,1.48,1.48,0,0,0,.4-.52,1.81,1.81,0,0,0,.15-.76v-.88a2.07,2.07,0,0,1-.85.81A2.38,2.38,0,0,1,8.61,39.15Zm.4-1a1.3,1.3,0,0,0,.52-.1,1.63,1.63,0,0,0,.47-.25,1.81,1.81,0,0,0,.37-.36,1.3,1.3,0,0,0,.22-.44v-1.5a1.77,1.77,0,0,0-.29-.5,2,2,0,0,0-.88-.65,1.24,1.24,0,0,0-.5-.1,1.49,1.49,0,0,0-.71.17,1.68,1.68,0,0,0-.53.46,2.14,2.14,0,0,0-.35.63,2.18,2.18,0,0,0-.12.72,2.08,2.08,0,0,0,.14.75,1.86,1.86,0,0,0,.38.6A1.81,1.81,0,0,0,8.3,38,1.51,1.51,0,0,0,9,38.17Z"/><path class="cls-1" d="M16.49,34.38a2.79,2.79,0,0,0-1.25.33,1.76,1.76,0,0,0-.78.86v3.52H13.25V33.34h1.13v1.29a2.54,2.54,0,0,1,.77-1,2,2,0,0,1,1-.39h.31Z"/><path class="cls-1" d="M18.82,39.2a2,2,0,0,1-.78-.14,1.75,1.75,0,0,1-.61-.38,1.66,1.66,0,0,1-.41-.57,1.71,1.71,0,0,1-.15-.71,1.53,1.53,0,0,1,.18-.74,1.69,1.69,0,0,1,.5-.57,2.41,2.41,0,0,1,.77-.38,3.75,3.75,0,0,1,1-.13,5.54,5.54,0,0,1,.81.07,4.28,4.28,0,0,1,.71.2v-.4a1.35,1.35,0,0,0-.36-1,1.46,1.46,0,0,0-1.05-.35,2.32,2.32,0,0,0-.9.17,3.93,3.93,0,0,0-.92.49L17.21,34a4.07,4.07,0,0,1,2.31-.75,2.66,2.66,0,0,1,1.85.6A2.26,2.26,0,0,1,22,35.58v2.08c0,.26.11.39.32.4v1l-.3,0H21.8a.73.73,0,0,1-.54-.18.77.77,0,0,1-.24-.45l0-.36a2.66,2.66,0,0,1-1,.77A2.75,2.75,0,0,1,18.82,39.2Zm.33-.89a2.12,2.12,0,0,0,.83-.16,1.48,1.48,0,0,0,.61-.44.6.6,0,0,0,.23-.42v-.76a4.11,4.11,0,0,0-.65-.19,4,4,0,0,0-.68-.06,1.82,1.82,0,0,0-1.06.28.83.83,0,0,0-.41.74,1,1,0,0,0,.31.72A1.21,1.21,0,0,0,19.15,38.31Z"/><path class="cls-1" d="M28.65,39.09H27.44V35.87a2,2,0,0,0-.26-1.18.85.85,0,0,0-.76-.37,1.42,1.42,0,0,0-.53.1,1.72,1.72,0,0,0-.49.28,2.15,2.15,0,0,0-.42.43,2,2,0,0,0-.28.54v3.42H23.49V33.34h1.1v1.15a2.37,2.37,0,0,1,1-.92,2.94,2.94,0,0,1,1.39-.33,1.63,1.63,0,0,1,.84.19,1.37,1.37,0,0,1,.53.51,2.54,2.54,0,0,1,.27.75,5.1,5.1,0,0,1,.07.89Z"/><path class="cls-1" d="M31.83,39.2a1.61,1.61,0,0,1-1.36-.59A2.77,2.77,0,0,1,30,36.86V33.34h1.21v3.28c0,1,.36,1.55,1.1,1.55a1.68,1.68,0,0,0,1-.32,2,2,0,0,0,.72-.93V33.34h1.21v4.32a.47.47,0,0,0,.07.3.37.37,0,0,0,.26.1v1l-.31,0H35a.83.83,0,0,1-.56-.19.6.6,0,0,1-.24-.46l0-.57a2.68,2.68,0,0,1-1,1A3,3,0,0,1,31.83,39.2Z"/><path class="cls-1" d="M36.77,31.06H38v6.37a.72.72,0,0,0,.17.5.59.59,0,0,0,.46.18,1,1,0,0,0,.28,0l.3-.1.18,1a3.13,3.13,0,0,1-.63.19,3.21,3.21,0,0,1-.65.07,1.2,1.2,0,0,1-1.32-1.31Z"/><path class="cls-1" d="M41.6,39.2a2,2,0,0,1-.78-.14,1.75,1.75,0,0,1-.61-.38,1.81,1.81,0,0,1-.41-.57,1.71,1.71,0,0,1-.15-.71,1.53,1.53,0,0,1,.18-.74,1.69,1.69,0,0,1,.5-.57,2.52,2.52,0,0,1,.77-.38,3.75,3.75,0,0,1,1-.13,5.54,5.54,0,0,1,.81.07,4.28,4.28,0,0,1,.71.2v-.4a1.35,1.35,0,0,0-.36-1,1.46,1.46,0,0,0-1.05-.35,2.36,2.36,0,0,0-.9.17,3.93,3.93,0,0,0-.92.49L40,34a4.07,4.07,0,0,1,2.31-.75,2.64,2.64,0,0,1,1.85.6,2.26,2.26,0,0,1,.66,1.74v2.08c0,.26.11.39.32.4v1l-.3,0h-.25A.75.75,0,0,1,44,39a.77.77,0,0,1-.24-.45l0-.36a2.72,2.72,0,0,1-1,.77A2.82,2.82,0,0,1,41.6,39.2Zm.33-.89a2.12,2.12,0,0,0,.83-.16,1.48,1.48,0,0,0,.61-.44.6.6,0,0,0,.23-.42v-.76a4.11,4.11,0,0,0-.65-.19,4,4,0,0,0-.68-.06,1.82,1.82,0,0,0-1.06.28.83.83,0,0,0-.41.74.93.93,0,0,0,.32.72A1.16,1.16,0,0,0,41.93,38.31Z"/><path class="cls-1" d="M49.43,38.79a4.52,4.52,0,0,1-.64.25,2.74,2.74,0,0,1-.87.14,1.78,1.78,0,0,1-.53-.08,1.37,1.37,0,0,1-.45-.23,1,1,0,0,1-.3-.4,1.4,1.4,0,0,1-.11-.6v-3.6h-.76v-.93h.76V31.45h1.21v1.89H49v.93H47.74v3.22a.59.59,0,0,0,.19.44.64.64,0,0,0,.42.14,1.37,1.37,0,0,0,.49-.09l.34-.14Z"/><path class="cls-1" d="M50.27,32.39V31.06h1.21v1.33Zm0,6.7V33.34h1.21v5.75Z"/><path class="cls-1" d="M55.51,39.2A3,3,0,0,1,54.29,39a2.94,2.94,0,0,1-.93-.65,2.84,2.84,0,0,1-.6-1,3.35,3.35,0,0,1,0-2.28,2.84,2.84,0,0,1,.6-.95,3.1,3.1,0,0,1,3.37-.65,3.1,3.1,0,0,1,.94.65,2.82,2.82,0,0,1,.59.95,3.2,3.2,0,0,1,0,2.28,2.82,2.82,0,0,1-.59,1,3.1,3.1,0,0,1-.94.65A3,3,0,0,1,55.51,39.2Zm-1.71-3a2.11,2.11,0,0,0,.13.77,1.93,1.93,0,0,0,.36.61,1.84,1.84,0,0,0,.55.41,1.59,1.59,0,0,0,1.35,0,1.84,1.84,0,0,0,.55-.41,2.24,2.24,0,0,0,.36-2.15,2.16,2.16,0,0,0-.36-.63,1.84,1.84,0,0,0-.55-.41,1.54,1.54,0,0,0-.68-.15,1.4,1.4,0,0,0-.66.16,1.72,1.72,0,0,0-.55.42,2,2,0,0,0-.36.62A1.94,1.94,0,0,0,53.8,36.23Z"/><path class="cls-1" d="M64.71,39.09H63.5V35.87a2.1,2.1,0,0,0-.26-1.18.86.86,0,0,0-.76-.37,1.42,1.42,0,0,0-.53.1,1.77,1.77,0,0,0-.5.28,2.1,2.1,0,0,0-.41.43,2,2,0,0,0-.28.54v3.42H59.55V33.34h1.1v1.15a2.37,2.37,0,0,1,1-.92A2.93,2.93,0,0,1,63,33.24a1.65,1.65,0,0,1,.85.19,1.28,1.28,0,0,1,.52.51,2.08,2.08,0,0,1,.27.75,4.27,4.27,0,0,1,.08.89Z"/></g></g></svg>