<svg xmlns="http://www.w3.org/2000/svg" viewBox="0 0 71 71"><defs><style>.cls-1{fill:#0647ff;}</style></defs><title>intrAsset 41</title><g id="Layer_2" data-name="Layer 2"><g id="selected"><path class="cls-1" d="M35.5,71A35.5,35.5,0,1,1,71,35.5,35.54,35.54,0,0,1,35.5,71Zm0-70A34.5,34.5,0,1,0,70,35.5,34.54,34.54,0,0,0,35.5,1Z"/><path class="cls-1" d="M10.16,33V28.28H9.39v-.93h.77v-.24a2.61,2.61,0,0,1,.49-1.68A1.63,1.63,0,0,1,12,24.82a2.74,2.74,0,0,1,.7.09,3,3,0,0,1,.64.26l-.26.9a1.76,1.76,0,0,0-.39-.17,1.71,1.71,0,0,0-.43-.06.74.74,0,0,0-.66.32,1.58,1.58,0,0,0-.22.92v.27h1.47v.93H11.37V33Z"/><path class="cls-1" d="M17,28.25a2.66,2.66,0,0,0-1.25.32,1.7,1.7,0,0,0-.78.87V33H13.74V27.2h1.12v1.29a2.63,2.63,0,0,1,.78-.95,1.85,1.85,0,0,1,1-.39H17Z"/><path class="cls-1" d="M20.18,33.07A3,3,0,0,1,19,32.83a2.85,2.85,0,0,1-.94-.64,2.81,2.81,0,0,1-.61-.95,3.23,3.23,0,0,1,0-2.29A2.67,2.67,0,0,1,18,28a2.73,2.73,0,0,1,.94-.65,3,3,0,0,1,1.23-.24,2.82,2.82,0,0,1,1.21.25,2.71,2.71,0,0,1,.93.64,2.68,2.68,0,0,1,.59.93,3,3,0,0,1,.2,1.12,2,2,0,0,1,0,.25.92.92,0,0,1,0,.19H18.48a2.06,2.06,0,0,0,.18.69,1.78,1.78,0,0,0,.39.54,1.7,1.7,0,0,0,.54.34,1.68,1.68,0,0,0,.63.12,2,2,0,0,0,.48-.06,1.49,1.49,0,0,0,.43-.17,1.65,1.65,0,0,0,.36-.28,1.31,1.31,0,0,0,.24-.37l1,.3a2.37,2.37,0,0,1-1,1.06A3,3,0,0,1,20.18,33.07Zm1.75-3.43a2.15,2.15,0,0,0-.19-.67,1.64,1.64,0,0,0-.37-.52,1.87,1.87,0,0,0-.54-.33,1.84,1.84,0,0,0-.65-.13,1.79,1.79,0,0,0-.65.13,1.69,1.69,0,0,0-.53.33,1.64,1.64,0,0,0-.37.52,1.9,1.9,0,0,0-.18.67Z"/><path class="cls-1" d="M26.3,33.07a2.2,2.2,0,0,1-1-.25,2.43,2.43,0,0,1-.81-.65,2.9,2.9,0,0,1-.52-1,3.6,3.6,0,0,1-.19-1.15A3.13,3.13,0,0,1,24,28.92a2.91,2.91,0,0,1,.56-1,2.84,2.84,0,0,1,.86-.64,2.58,2.58,0,0,1,1.08-.23,2.31,2.31,0,0,1,1.19.32,2.56,2.56,0,0,1,.84.83V27.2h1.07v6.61a.42.42,0,0,0,.08.29.48.48,0,0,0,.27.11v1l-.33,0h-.32a.9.9,0,0,1-.64-.26.8.8,0,0,1-.27-.62V31.88a2.48,2.48,0,0,1-.87.89A2.36,2.36,0,0,1,26.3,33.07Zm.44-1a1.51,1.51,0,0,0,1-.31,2.7,2.7,0,0,0,.66-.79V29.41a1.35,1.35,0,0,0-.22-.49,1.65,1.65,0,0,0-.39-.4,1.83,1.83,0,0,0-.49-.28,1.41,1.41,0,0,0-.52-.1,1.5,1.5,0,0,0-.7.16,1.81,1.81,0,0,0-.55.44,2.12,2.12,0,0,0-.36.64,2.14,2.14,0,0,0,0,1.47,1.83,1.83,0,0,0,.91,1A1.63,1.63,0,0,0,26.74,32Z"/><path class="cls-1" d="M32.79,33.07a1.63,1.63,0,0,1-1.36-.59A2.82,2.82,0,0,1,31,30.72V27.2h1.21v3.28c0,1,.36,1.55,1.1,1.55a1.66,1.66,0,0,0,1-.32,2.09,2.09,0,0,0,.71-.92V27.2h1.21v4.33a.51.51,0,0,0,.07.29.37.37,0,0,0,.26.1v1l-.31,0H36a.89.89,0,0,1-.56-.18.62.62,0,0,1-.24-.47l0-.57a2.6,2.6,0,0,1-1,1A2.82,2.82,0,0,1,32.79,33.07Z"/><path class="cls-1" d="M40.33,33.07a3,3,0,0,1-1.22-.24,2.85,2.85,0,0,1-.94-.64,3.15,3.15,0,0,1-.61-.95,3.23,3.23,0,0,1,0-2.29,3,3,0,0,1,.61-1,2.73,2.73,0,0,1,.94-.65,3,3,0,0,1,1.23-.24,2.79,2.79,0,0,1,1.21.25,2.71,2.71,0,0,1,.93.64,2.68,2.68,0,0,1,.59.93A3.05,3.05,0,0,1,43.28,30c0,.09,0,.17,0,.25s0,.14,0,.19H38.63a2.06,2.06,0,0,0,.19.69,1.75,1.75,0,0,0,.38.54,1.7,1.7,0,0,0,.54.34,1.68,1.68,0,0,0,.63.12,2,2,0,0,0,.48-.06,1.67,1.67,0,0,0,.44-.17,1.87,1.87,0,0,0,.35-.28,1.31,1.31,0,0,0,.24-.37l1,.3a2.32,2.32,0,0,1-1,1.06A3,3,0,0,1,40.33,33.07Zm1.75-3.43A1.9,1.9,0,0,0,41.9,29a1.84,1.84,0,0,0-.38-.52,1.87,1.87,0,0,0-.54-.33,1.69,1.69,0,0,0-1.3,0,1.82,1.82,0,0,0-.53.33,1.64,1.64,0,0,0-.37.52,1.9,1.9,0,0,0-.18.67Z"/><path class="cls-1" d="M49.42,33H48.21V29.73A2.14,2.14,0,0,0,48,28.55a.88.88,0,0,0-.77-.37,1.46,1.46,0,0,0-.53.1,2,2,0,0,0-.49.28,2.4,2.4,0,0,0-.41.43,2,2,0,0,0-.28.54V33H44.27V27.2h1.1v1.16a2.34,2.34,0,0,1,1-.92,3,3,0,0,1,1.39-.34,1.78,1.78,0,0,1,.85.19,1.49,1.49,0,0,1,.52.51,2.23,2.23,0,0,1,.27.75,5.14,5.14,0,0,1,.07.9Z"/><path class="cls-1" d="M50.46,30.07a3.12,3.12,0,0,1,.21-1.14,2.78,2.78,0,0,1,1.54-1.59,3.07,3.07,0,0,1,1.23-.24,2.88,2.88,0,0,1,1.53.39,2.55,2.55,0,0,1,1,1l-1.18.38a1.49,1.49,0,0,0-1.34-.77,1.72,1.72,0,0,0-.68.14,1.65,1.65,0,0,0-.54.4,1.88,1.88,0,0,0-.37.61,2.45,2.45,0,0,0-.13.78,2.21,2.21,0,0,0,.14.78,2.13,2.13,0,0,0,.37.62,1.69,1.69,0,0,0,.55.41,1.53,1.53,0,0,0,.67.15,1.67,1.67,0,0,0,.44-.06,1.61,1.61,0,0,0,.72-.42,1,1,0,0,0,.2-.31l1.19.35a2.33,2.33,0,0,1-1,1.06,2.89,2.89,0,0,1-1.58.42,3,3,0,0,1-1.22-.25,2.87,2.87,0,0,1-.94-.65,3,3,0,0,1-.82-2.1Z"/><path class="cls-1" d="M57.1,34.31l.33,0,.26,0a.48.48,0,0,0,.24-.06,1.13,1.13,0,0,0,.22-.22,2.12,2.12,0,0,0,.22-.43q.12-.28.27-.72L56.28,27.2h1.24l1.78,4.69,1.59-4.69H62l-2.61,7.09a1.72,1.72,0,0,1-1.72,1.16h-.28a1.65,1.65,0,0,1-.32-.08Z"/><path class="cls-1" d="M26.74,46a2.48,2.48,0,0,1-1.89-.88,3.07,3.07,0,0,1-.54-.93,3.25,3.25,0,0,1-.19-1.12,3.44,3.44,0,0,1,.19-1.16,3.23,3.23,0,0,1,.55-.94,2.76,2.76,0,0,1,.84-.64,2.45,2.45,0,0,1,1.09-.24,2.19,2.19,0,0,1,1.21.33,2.85,2.85,0,0,1,.87.86V40.2h1.06v5.59a2.45,2.45,0,0,1-.23,1.11,2.34,2.34,0,0,1-.64.82,2.9,2.9,0,0,1-1,.51,4,4,0,0,1-1.21.18,3.41,3.41,0,0,1-1.59-.33,3,3,0,0,1-1.07-.9l.69-.64a2.07,2.07,0,0,0,.85.7,2.65,2.65,0,0,0,1.12.24,2.82,2.82,0,0,0,.71-.09,1.71,1.71,0,0,0,.58-.31,1.54,1.54,0,0,0,.41-.53,1.94,1.94,0,0,0,.14-.76v-.88a2,2,0,0,1-.84.81A2.3,2.3,0,0,1,26.74,46Zm.4-1a1.6,1.6,0,0,0,.53-.09,2.12,2.12,0,0,0,.47-.25,1.8,1.8,0,0,0,.36-.37,1.1,1.1,0,0,0,.22-.43V42.38a1.89,1.89,0,0,0-.28-.5,2.11,2.11,0,0,0-.4-.39,1.87,1.87,0,0,0-.48-.26,1.52,1.52,0,0,0-.51-.09,1.41,1.41,0,0,0-.71.17,1.63,1.63,0,0,0-.53.45,2.13,2.13,0,0,0-.34.63,2.28,2.28,0,0,0-.12.73,2,2,0,0,0,.13.74,2,2,0,0,0,.38.6,2,2,0,0,0,.57.42A1.67,1.67,0,0,0,27.14,45Z"/><path class="cls-1" d="M32.92,46.07a2.21,2.21,0,0,1-.78-.14,2,2,0,0,1-.62-.38,1.78,1.78,0,0,1-.4-.57,1.72,1.72,0,0,1-.15-.72,1.64,1.64,0,0,1,.17-.74,1.81,1.81,0,0,1,.5-.57,2.62,2.62,0,0,1,.77-.37,3.44,3.44,0,0,1,1-.13,4.25,4.25,0,0,1,.8.07,4.43,4.43,0,0,1,.72.19v-.4a1.3,1.3,0,0,0-.37-1,1.41,1.41,0,0,0-1-.36,2.62,2.62,0,0,0-.91.17,5.17,5.17,0,0,0-.92.49l-.37-.77a4.07,4.07,0,0,1,2.31-.75,2.66,2.66,0,0,1,1.85.61,2.23,2.23,0,0,1,.66,1.74v2.08c0,.25.1.38.32.39v1l-.31,0H35.9a.78.78,0,0,1-.55-.18.66.66,0,0,1-.23-.45l0-.36a2.48,2.48,0,0,1-.95.78A2.78,2.78,0,0,1,32.92,46.07Zm.33-.9a2.31,2.31,0,0,0,.83-.15,1.5,1.5,0,0,0,.61-.45.56.56,0,0,0,.23-.42v-.76a3.57,3.57,0,0,0-.66-.18,3.11,3.11,0,0,0-.67-.07,1.85,1.85,0,0,0-1.07.28.87.87,0,0,0-.41.74.93.93,0,0,0,.32.72A1.14,1.14,0,0,0,33.25,45.17Z"/><path class="cls-1" d="M40.75,45.66l-.64.25a2.73,2.73,0,0,1-.87.13A1.9,1.9,0,0,1,38.7,46a1.23,1.23,0,0,1-.44-.23,1.17,1.17,0,0,1-.31-.41,1.5,1.5,0,0,1-.11-.6V41.14h-.76V40.2h.76V38.31h1.21V40.2h1.26v.94H39.05v3.21a.57.57,0,0,0,.2.44.59.59,0,0,0,.42.14,1.28,1.28,0,0,0,.48-.09,1.75,1.75,0,0,0,.34-.14Z"/><path class="cls-1" d="M44.05,46.07a3,3,0,0,1-1.22-.24,2.85,2.85,0,0,1-.94-.64,2.81,2.81,0,0,1-.61-.95,3.23,3.23,0,0,1,0-2.29,2.67,2.67,0,0,1,.61-1,2.73,2.73,0,0,1,.94-.65,3,3,0,0,1,1.23-.24,2.82,2.82,0,0,1,1.21.25,2.71,2.71,0,0,1,.93.64,2.68,2.68,0,0,1,.59.93A3.05,3.05,0,0,1,47,43a2,2,0,0,1,0,.25.92.92,0,0,1,0,.19H42.35a2.32,2.32,0,0,0,.18.69,1.78,1.78,0,0,0,.39.54,1.7,1.7,0,0,0,.54.34,1.68,1.68,0,0,0,.63.12,2,2,0,0,0,.48-.06,1.49,1.49,0,0,0,.43-.17,1.65,1.65,0,0,0,.36-.28,1.31,1.31,0,0,0,.24-.37l1,.3a2.37,2.37,0,0,1-1,1.06A3,3,0,0,1,44.05,46.07Zm1.75-3.43a2.15,2.15,0,0,0-.19-.67,1.64,1.64,0,0,0-.37-.52,1.87,1.87,0,0,0-.54-.33,1.84,1.84,0,0,0-.65-.13,1.79,1.79,0,0,0-.65.13,1.69,1.69,0,0,0-.53.33,1.64,1.64,0,0,0-.37.52,1.9,1.9,0,0,0-.18.67Z"/></g></g></svg>