<svg xmlns="http://www.w3.org/2000/svg" viewBox="0 0 71 71"><defs><style>.cls-1{fill:#0647ff;}</style></defs><title>intrAsset 38</title><g id="Layer_2" data-name="Layer 2"><g id="selected"><path class="cls-1" d="M35.5,71A35.5,35.5,0,1,1,71,35.5,35.55,35.55,0,0,1,35.5,71Zm0-70A34.5,34.5,0,1,0,70,35.5,34.54,34.54,0,0,0,35.5,1Z"/><path class="cls-1" d="M20.77,29.07a3.11,3.11,0,0,1,.2-1.14,2.84,2.84,0,0,1,.6-.95,3,3,0,0,1,.94-.64,3.08,3.08,0,0,1,1.24-.24,2.9,2.9,0,0,1,1.53.39,2.46,2.46,0,0,1,1,1l-1.17.38a1.61,1.61,0,0,0-.56-.57,1.63,1.63,0,0,0-.79-.2,1.67,1.67,0,0,0-.67.14,1.81,1.81,0,0,0-.55.4,2,2,0,0,0-.36.61,2.2,2.2,0,0,0-.13.78,2,2,0,0,0,.14.78,1.93,1.93,0,0,0,.37.62,1.69,1.69,0,0,0,.55.41,1.53,1.53,0,0,0,.67.15,1.72,1.72,0,0,0,.44-.06,1.78,1.78,0,0,0,.4-.17,2,2,0,0,0,.32-.25,1,1,0,0,0,.2-.31l1.19.35a2.33,2.33,0,0,1-1,1.06,2.94,2.94,0,0,1-1.58.42,3,3,0,0,1-1.22-.25,3,3,0,0,1-1-.65,3,3,0,0,1-.6-1A3.13,3.13,0,0,1,20.77,29.07Z"/><path class="cls-1" d="M32.45,32H31.24V28.73A2,2,0,0,0,31,27.56a1,1,0,0,0-.81-.38,1.32,1.32,0,0,0-.51.1,1.94,1.94,0,0,0-.48.28,2.35,2.35,0,0,0-.4.43,2.24,2.24,0,0,0-.26.54V32H27.29v-8H28.5v3.43a2.41,2.41,0,0,1,2.13-1.26,1.8,1.8,0,0,1,.89.2,1.42,1.42,0,0,1,.55.51,2.13,2.13,0,0,1,.3.74,5.11,5.11,0,0,1,.08.9Z"/><path class="cls-1" d="M36.44,32.07a3.07,3.07,0,0,1-1.23-.25,2.79,2.79,0,0,1-.93-.65,2.88,2.88,0,0,1-.59-1,3.17,3.17,0,0,1,0-2.27,2.89,2.89,0,0,1,.6-1,2.85,2.85,0,0,1,.94-.64,2.79,2.79,0,0,1,1.21-.25,2.86,2.86,0,0,1,1.22.25A2.78,2.78,0,0,1,39.19,28a3.17,3.17,0,0,1,0,2.27,2.75,2.75,0,0,1-.6,1,2.79,2.79,0,0,1-.93.65A3,3,0,0,1,36.44,32.07Zm-1.72-3a2.19,2.19,0,0,0,.14.77,2,2,0,0,0,.36.61,1.65,1.65,0,0,0,.54.4,1.62,1.62,0,0,0,1.36,0,1.55,1.55,0,0,0,.54-.41,1.74,1.74,0,0,0,.36-.62,2.11,2.11,0,0,0,.14-.77,2.14,2.14,0,0,0-.14-.76,1.66,1.66,0,0,0-.36-.62,1.55,1.55,0,0,0-.54-.41,1.59,1.59,0,0,0-1.35,0,1.68,1.68,0,0,0-.54.42,2.13,2.13,0,0,0-.37.62A2.15,2.15,0,0,0,34.72,29.1Z"/><path class="cls-1" d="M43.71,27.25a2.69,2.69,0,0,0-1.25.32,1.68,1.68,0,0,0-.77.87V32H40.48V26.2H41.6v1.29a2.63,2.63,0,0,1,.78-.95,1.82,1.82,0,0,1,1-.39h.31Z"/><path class="cls-1" d="M46.65,32.07a2.44,2.44,0,0,1-1.08-.24,2.72,2.72,0,0,1-.86-.64,3,3,0,0,1-.56-1,3.2,3.2,0,0,1-.21-1.17,3.33,3.33,0,0,1,.2-1.14,2.9,2.9,0,0,1,.53-.94,2.8,2.8,0,0,1,.82-.64,2.2,2.2,0,0,1,1-.24,2.26,2.26,0,0,1,1.22.34,2.47,2.47,0,0,1,.82.85V23.93h1.21v6.6a.51.51,0,0,0,.07.29.37.37,0,0,0,.26.1v1l-.3,0h-.19a.92.92,0,0,1-.6-.19.67.67,0,0,1-.25-.48l0-.43a2.29,2.29,0,0,1-.87.85A2.51,2.51,0,0,1,46.65,32.07Zm.3-1a1.58,1.58,0,0,0,.52-.09A2,2,0,0,0,48,30.7a1.85,1.85,0,0,0,.38-.36,1.35,1.35,0,0,0,.22-.45V28.38a1.82,1.82,0,0,0-.28-.51,2.16,2.16,0,0,0-.41-.39,1.62,1.62,0,0,0-.49-.25,1.58,1.58,0,0,0-.52-.09,1.38,1.38,0,0,0-.67.16,1.82,1.82,0,0,0-.52.44,2.27,2.27,0,0,0-.35.63,2.24,2.24,0,0,0-.12.73,2,2,0,0,0,.13.74,2.15,2.15,0,0,0,.38.62,2.06,2.06,0,0,0,.56.42A1.54,1.54,0,0,0,47,31Z"/><path class="cls-1" d="M8.79,45.07a2.23,2.23,0,0,1-1.22-.33,2.47,2.47,0,0,1-.84-.86V47.3H5.52V39.2H6.59v1a2.5,2.5,0,0,1,.85-.83,2.45,2.45,0,0,1,2.27-.06,2.72,2.72,0,0,1,.86.64,3.25,3.25,0,0,1,.57.95,3.32,3.32,0,0,1,.2,1.13,3.52,3.52,0,0,1-.19,1.18,2.8,2.8,0,0,1-.53.94,2.49,2.49,0,0,1-.8.64A2.26,2.26,0,0,1,8.79,45.07Zm-.4-1a1.47,1.47,0,0,0,.7-.16,1.77,1.77,0,0,0,.54-.44A2.42,2.42,0,0,0,10,42.8a2.28,2.28,0,0,0,.12-.73,2,2,0,0,0-.14-.74,2,2,0,0,0-.38-.62A1.56,1.56,0,0,0,9,40.29a1.72,1.72,0,0,0-.72-.15,1.45,1.45,0,0,0-.48.09,1.4,1.4,0,0,0-.47.24,1.67,1.67,0,0,0-.39.36,1.1,1.1,0,0,0-.23.44v1.51a2,2,0,0,0,.29.49,1.65,1.65,0,0,0,.39.4,1.75,1.75,0,0,0,.46.26A1.34,1.34,0,0,0,8.39,44Z"/><path class="cls-1" d="M15.66,40.25a2.69,2.69,0,0,0-1.25.32,1.68,1.68,0,0,0-.77.87V45H12.43V39.2h1.12v1.29a2.63,2.63,0,0,1,.78-1,1.82,1.82,0,0,1,1-.39h.31Z"/><path class="cls-1" d="M18.84,45.07a3.07,3.07,0,0,1-1.23-.25,2.79,2.79,0,0,1-.93-.65,2.88,2.88,0,0,1-.59-1,3.17,3.17,0,0,1,0-2.27,2.89,2.89,0,0,1,.6-1,2.85,2.85,0,0,1,.94-.64,2.79,2.79,0,0,1,1.21-.25,2.86,2.86,0,0,1,1.22.25A2.78,2.78,0,0,1,21.59,41a3.17,3.17,0,0,1,0,2.27,2.75,2.75,0,0,1-.6,1,2.79,2.79,0,0,1-.93.65A3,3,0,0,1,18.84,45.07Zm-1.72-3a2.19,2.19,0,0,0,.14.77,2,2,0,0,0,.36.61,1.77,1.77,0,0,0,.54.4,1.62,1.62,0,0,0,1.36,0,1.55,1.55,0,0,0,.54-.41,1.74,1.74,0,0,0,.36-.62,2.11,2.11,0,0,0,.14-.77,2.14,2.14,0,0,0-.14-.76,1.66,1.66,0,0,0-.36-.62,1.55,1.55,0,0,0-.54-.41,1.57,1.57,0,0,0-.68-.15,1.49,1.49,0,0,0-.66.15,1.62,1.62,0,0,0-.55.42,2.13,2.13,0,0,0-.37.62A2.15,2.15,0,0,0,17.12,42.1Z"/><path class="cls-1" d="M25.15,45a2.36,2.36,0,0,1-1.06-.24,2.47,2.47,0,0,1-.83-.64,3.07,3.07,0,0,1-.54-.93,3.25,3.25,0,0,1-.19-1.12,3.44,3.44,0,0,1,.19-1.16,3.23,3.23,0,0,1,.55-.94,2.68,2.68,0,0,1,.85-.64,2.38,2.38,0,0,1,1.08-.24,2.19,2.19,0,0,1,1.21.33,2.85,2.85,0,0,1,.87.86V39.2h1.06v5.59a2.45,2.45,0,0,1-.23,1.11,2.23,2.23,0,0,1-.64.82,2.81,2.81,0,0,1-1,.51,4,4,0,0,1-1.21.18,3.41,3.41,0,0,1-1.59-.33,3,3,0,0,1-1.06-.9l.68-.64a2.07,2.07,0,0,0,.85.7,2.65,2.65,0,0,0,1.12.24,2.76,2.76,0,0,0,.71-.09,1.62,1.62,0,0,0,.58-.31,1.54,1.54,0,0,0,.41-.53,1.78,1.78,0,0,0,.14-.76v-.88a2,2,0,0,1-.84.81A2.3,2.3,0,0,1,25.15,45Zm.4-1a1.6,1.6,0,0,0,.53-.09,2.12,2.12,0,0,0,.47-.25,2.16,2.16,0,0,0,.37-.37,1.23,1.23,0,0,0,.21-.43V41.38a1.89,1.89,0,0,0-.28-.5,2.11,2.11,0,0,0-.4-.39,1.87,1.87,0,0,0-.48-.26,1.52,1.52,0,0,0-.51-.09,1.41,1.41,0,0,0-.71.17,1.63,1.63,0,0,0-.53.45,2.13,2.13,0,0,0-.34.63,2.28,2.28,0,0,0-.12.73,2,2,0,0,0,.51,1.34,2,2,0,0,0,.57.42A1.67,1.67,0,0,0,25.55,44Z"/><path class="cls-1" d="M33,40.25a2.69,2.69,0,0,0-1.25.32,1.68,1.68,0,0,0-.77.87V45H29.8V39.2h1.12v1.29a2.71,2.71,0,0,1,.77-1,1.88,1.88,0,0,1,1-.39H33Z"/><path class="cls-1" d="M36.23,45.07A3,3,0,0,1,35,44.83a2.85,2.85,0,0,1-.94-.64,3.15,3.15,0,0,1-.61-.95,3.23,3.23,0,0,1,0-2.29,3,3,0,0,1,.61-1,2.73,2.73,0,0,1,.94-.65,3.07,3.07,0,0,1,1.23-.24,2.86,2.86,0,0,1,1.22.25,2.91,2.91,0,0,1,.93.64,3,3,0,0,1,.59.93,3.26,3.26,0,0,1,.2,1.12,2,2,0,0,1,0,.25,1.76,1.76,0,0,0,0,.19H34.54a1.85,1.85,0,0,0,.18.69,1.94,1.94,0,0,0,.38.54,1.7,1.7,0,0,0,.54.34,1.73,1.73,0,0,0,.64.12,1.84,1.84,0,0,0,.47-.06,1.55,1.55,0,0,0,.44-.17,1.6,1.6,0,0,0,.35-.28,1.31,1.31,0,0,0,.24-.37l1,.3a2.4,2.4,0,0,1-1,1.06A3,3,0,0,1,36.23,45.07ZM38,41.64A1.9,1.9,0,0,0,37.8,41a1.84,1.84,0,0,0-.38-.52,1.63,1.63,0,0,0-.54-.33,1.79,1.79,0,0,0-.65-.13,1.7,1.7,0,0,0-.64.13,1.87,1.87,0,0,0-.54.33,1.81,1.81,0,0,0-.37.52,2.14,2.14,0,0,0-.18.67Z"/><path class="cls-1" d="M42.26,45.07a4.44,4.44,0,0,1-1.38-.23,3.44,3.44,0,0,1-1.18-.64l.48-.77a4.51,4.51,0,0,0,1,.56,2.91,2.91,0,0,0,1,.2,1.51,1.51,0,0,0,.85-.21.67.67,0,0,0,.31-.6.55.55,0,0,0-.35-.53,6.69,6.69,0,0,0-1.1-.36c-.36-.09-.67-.19-.92-.27a2.31,2.31,0,0,1-.63-.31,1,1,0,0,1-.35-.41,1.33,1.33,0,0,1-.11-.56,1.79,1.79,0,0,1,.17-.78,1.65,1.65,0,0,1,.47-.58,2.26,2.26,0,0,1,.71-.36,3.12,3.12,0,0,1,.88-.12,3.66,3.66,0,0,1,1.21.2,3,3,0,0,1,1,.57l-.51.73A2.7,2.7,0,0,0,42.16,40a1.55,1.55,0,0,0-.78.19.69.69,0,0,0-.31.61.56.56,0,0,0,.07.3.53.53,0,0,0,.21.21,1.84,1.84,0,0,0,.39.16l.59.16c.38.1.72.19,1,.29a2.53,2.53,0,0,1,.7.33,1.34,1.34,0,0,1,.41.45,1.32,1.32,0,0,1,.13.62A1.58,1.58,0,0,1,44,44.59,2.71,2.71,0,0,1,42.26,45.07Z"/><path class="cls-1" d="M47.72,45.07a4.45,4.45,0,0,1-1.39-.23,3.53,3.53,0,0,1-1.18-.64l.49-.77a4.3,4.3,0,0,0,1,.56,2.86,2.86,0,0,0,1,.2,1.54,1.54,0,0,0,.86-.21.7.7,0,0,0,.31-.6.56.56,0,0,0-.35-.53,7,7,0,0,0-1.1-.36c-.36-.09-.67-.19-.93-.27a2.39,2.39,0,0,1-.62-.31,1.07,1.07,0,0,1-.36-.41,1.33,1.33,0,0,1-.11-.56A1.64,1.64,0,0,1,46,39.58a2.26,2.26,0,0,1,.71-.36,3.07,3.07,0,0,1,.88-.12,3.7,3.7,0,0,1,1.21.2,3.21,3.21,0,0,1,1,.57l-.52.73a2.65,2.65,0,0,0-1.7-.64,1.55,1.55,0,0,0-.78.19.76.76,0,0,0-.25.91.64.64,0,0,0,.22.21,2,2,0,0,0,.38.16l.59.16c.39.1.73.19,1,.29a2.68,2.68,0,0,1,.7.33,1.21,1.21,0,0,1,.4.45,1.32,1.32,0,0,1,.14.62,1.56,1.56,0,0,1-.63,1.31A2.66,2.66,0,0,1,47.72,45.07Z"/><path class="cls-1" d="M51.08,38.26V36.93h1.21v1.33Zm0,6.7V39.2h1.21V45Z"/><path class="cls-1" d="M56.33,45.07a3,3,0,0,1-1.23-.25,2.79,2.79,0,0,1-.93-.65,2.88,2.88,0,0,1-.59-1,3.17,3.17,0,0,1,0-2.27,2.91,2.91,0,0,1,2.75-1.85,2.79,2.79,0,0,1,1.21.25,2.85,2.85,0,0,1,.94.64,2.89,2.89,0,0,1,.6,1,3.17,3.17,0,0,1,0,2.27,2.83,2.83,0,0,1-1.54,1.6A2.94,2.94,0,0,1,56.33,45.07Zm-1.72-3a2.44,2.44,0,0,0,.13.77,2,2,0,0,0,.37.61,1.65,1.65,0,0,0,.54.4,1.57,1.57,0,0,0,.68.15,1.5,1.5,0,0,0,.67-.15,1.59,1.59,0,0,0,.55-.41A2.1,2.1,0,0,0,58,42.08a2.13,2.13,0,0,0-.13-.76,2,2,0,0,0-.36-.62,1.59,1.59,0,0,0-.55-.41,1.5,1.5,0,0,0-.67-.15,1.53,1.53,0,0,0-.67.15,1.58,1.58,0,0,0-.54.42,1.93,1.93,0,0,0-.37.62A2.15,2.15,0,0,0,54.61,42.1Z"/><path class="cls-1" d="M65.52,45H64.31V41.73a2.14,2.14,0,0,0-.25-1.18.88.88,0,0,0-.77-.37,1.46,1.46,0,0,0-.53.1,2,2,0,0,0-.49.28,2.09,2.09,0,0,0-.41.43,2,2,0,0,0-.28.54V45H60.37V39.2h1.1v1.16a2.28,2.28,0,0,1,1-.92,3,3,0,0,1,1.39-.34,1.78,1.78,0,0,1,.85.19,1.49,1.49,0,0,1,.52.51,2.23,2.23,0,0,1,.27.75,5.14,5.14,0,0,1,.07.9Z"/></g></g></svg>