<svg xmlns="http://www.w3.org/2000/svg" viewBox="0 0 71 71"><defs><style>.cls-1{fill:#0647ff;}</style></defs><title>intrAsset 40</title><g id="Layer_2" data-name="Layer 2"><g id="selected"><path class="cls-1" d="M35.5,71A35.5,35.5,0,1,1,71,35.5,35.54,35.54,0,0,1,35.5,71Zm0-70A34.5,34.5,0,1,0,70,35.5,34.54,34.54,0,0,0,35.5,1Z"/><path class="cls-1" d="M9.67,30.07a3.12,3.12,0,0,1,.21-1.14,2.56,2.56,0,0,1,.6-.95,2.85,2.85,0,0,1,.94-.64,3,3,0,0,1,1.23-.24,2.9,2.9,0,0,1,1.53.39,2.46,2.46,0,0,1,1,1L14,28.91a1.49,1.49,0,0,0-1.34-.77,1.69,1.69,0,0,0-.68.14,1.81,1.81,0,0,0-.55.4,2,2,0,0,0-.36.61,2.32,2.32,0,0,0,0,1.56,1.93,1.93,0,0,0,.37.62,1.69,1.69,0,0,0,.55.41,1.53,1.53,0,0,0,.67.15,1.72,1.72,0,0,0,.44-.06,1.78,1.78,0,0,0,.4-.17,1.61,1.61,0,0,0,.32-.25,1,1,0,0,0,.2-.31l1.19.35a2.33,2.33,0,0,1-1,1.06,2.91,2.91,0,0,1-1.58.42,3,3,0,0,1-1.22-.25,2.87,2.87,0,0,1-.94-.65,3,3,0,0,1-.61-1A3.13,3.13,0,0,1,9.67,30.07Z"/><path class="cls-1" d="M21.35,33H20.14V29.73a2,2,0,0,0-.28-1.17,1,1,0,0,0-.81-.38,1.32,1.32,0,0,0-.51.1,2.08,2.08,0,0,0-.47.28,2.4,2.4,0,0,0-.41.43,2.24,2.24,0,0,0-.26.54V33H16.19v-8H17.4v3.43a2.41,2.41,0,0,1,2.13-1.26,1.8,1.8,0,0,1,.89.2,1.42,1.42,0,0,1,.55.51,2.13,2.13,0,0,1,.3.74,5.11,5.11,0,0,1,.08.9Z"/><path class="cls-1" d="M26,28.25a2.69,2.69,0,0,0-1.25.32,1.68,1.68,0,0,0-.77.87V33H22.76V27.2h1.12v1.29a2.6,2.6,0,0,1,.77-.95,1.88,1.88,0,0,1,1-.39H26Z"/><path class="cls-1" d="M29.17,33.07a3,3,0,0,1-1.23-.25,2.79,2.79,0,0,1-.93-.65,2.88,2.88,0,0,1-.59-1,3.17,3.17,0,0,1,0-2.27,2.91,2.91,0,0,1,2.75-1.85,2.79,2.79,0,0,1,1.21.25,2.85,2.85,0,0,1,.94.64,2.89,2.89,0,0,1,.6,1,3.17,3.17,0,0,1,0,2.27,2.83,2.83,0,0,1-1.54,1.6A2.94,2.94,0,0,1,29.17,33.07Zm-1.72-3a2.19,2.19,0,0,0,.14.77,1.79,1.79,0,0,0,.36.61,1.65,1.65,0,0,0,.54.4,1.62,1.62,0,0,0,1.36,0,1.65,1.65,0,0,0,.54-.41,1.91,1.91,0,0,0,.36-.62,2.11,2.11,0,0,0,.14-.77,2.14,2.14,0,0,0-.14-.76,1.81,1.81,0,0,0-.36-.62,1.65,1.65,0,0,0-.54-.41,1.57,1.57,0,0,0-.68-.15,1.53,1.53,0,0,0-.67.15,1.58,1.58,0,0,0-.54.42,2.13,2.13,0,0,0-.37.62A2.15,2.15,0,0,0,27.45,30.1Z"/><path class="cls-1" d="M42,33H40.8V29.73a2,2,0,0,0-.27-1.17.88.88,0,0,0-.77-.38,1.39,1.39,0,0,0-.94.38,2.17,2.17,0,0,0-.61,1V33H37V29.73a2.13,2.13,0,0,0-.26-1.18.87.87,0,0,0-.76-.37,1.42,1.42,0,0,0-.95.38,2.07,2.07,0,0,0-.61,1V33H33.21V27.2h1.1v1.16a2.28,2.28,0,0,1,.89-.93,2.45,2.45,0,0,1,1.27-.33,1.61,1.61,0,0,1,1.13.38,1.54,1.54,0,0,1,.51.93,2.61,2.61,0,0,1,.92-1,2.36,2.36,0,0,1,1.25-.34,1.63,1.63,0,0,1,.84.2,1.37,1.37,0,0,1,.53.51,1.93,1.93,0,0,1,.28.74,5.11,5.11,0,0,1,.08.9Z"/><path class="cls-1" d="M44.93,33.07a2.15,2.15,0,0,1-.77-.14,1.85,1.85,0,0,1-.62-.38,1.81,1.81,0,0,1-.41-.57,1.89,1.89,0,0,1-.14-.72,1.52,1.52,0,0,1,.17-.74,1.81,1.81,0,0,1,.5-.57,2.5,2.5,0,0,1,.77-.37,3.44,3.44,0,0,1,1-.13,4.25,4.25,0,0,1,.8.07,4.3,4.3,0,0,1,.71.19v-.4a1.34,1.34,0,0,0-.36-1,1.41,1.41,0,0,0-1-.36,2.62,2.62,0,0,0-.91.17,5.17,5.17,0,0,0-.92.49l-.37-.77a4.07,4.07,0,0,1,2.31-.75,2.63,2.63,0,0,1,1.84.61,2.23,2.23,0,0,1,.66,1.74v2.08c0,.25.11.38.32.39v1l-.3,0h-.25a.77.77,0,0,1-.54-.18.71.71,0,0,1-.24-.45l0-.36a2.56,2.56,0,0,1-1,.78A2.79,2.79,0,0,1,44.93,33.07Zm.33-.9a2.27,2.27,0,0,0,.83-.15,1.43,1.43,0,0,0,.61-.45.53.53,0,0,0,.23-.42v-.76a3.26,3.26,0,0,0-.65-.18,3.21,3.21,0,0,0-.68-.07,1.84,1.84,0,0,0-1.06.28.87.87,0,0,0-.41.74.93.93,0,0,0,.32.72A1.12,1.12,0,0,0,45.26,32.17Z"/><path class="cls-1" d="M52.76,32.66c-.15.07-.36.15-.63.25a2.73,2.73,0,0,1-.87.13,1.9,1.9,0,0,1-.54-.07,1.37,1.37,0,0,1-.45-.23,1,1,0,0,1-.3-.41,1.5,1.5,0,0,1-.11-.6V28.14H49.1V27.2h.76V25.31h1.21V27.2h1.25v.94H51.07v3.21a.57.57,0,0,0,.19.44.64.64,0,0,0,.43.14,1.28,1.28,0,0,0,.48-.09,2.08,2.08,0,0,0,.34-.14Z"/><path class="cls-1" d="M53.6,26.26V24.93h1.21v1.33Zm0,6.7V27.2h1.21V33Z"/><path class="cls-1" d="M55.89,30.07a3.12,3.12,0,0,1,.21-1.14,2.78,2.78,0,0,1,1.54-1.59,3,3,0,0,1,1.23-.24,2.88,2.88,0,0,1,1.53.39,2.55,2.55,0,0,1,1,1l-1.18.38a1.49,1.49,0,0,0-1.34-.77,1.72,1.72,0,0,0-.68.14,1.65,1.65,0,0,0-.54.4,1.88,1.88,0,0,0-.37.61,2.45,2.45,0,0,0-.13.78,2.21,2.21,0,0,0,.14.78,2.13,2.13,0,0,0,.37.62,1.69,1.69,0,0,0,.55.41,1.53,1.53,0,0,0,.67.15A1.67,1.67,0,0,0,59.3,32a1.61,1.61,0,0,0,.72-.42,1,1,0,0,0,.2-.31l1.19.35a2.33,2.33,0,0,1-1,1.06,2.89,2.89,0,0,1-1.58.42,3,3,0,0,1-1.22-.25,2.87,2.87,0,0,1-.94-.65,3,3,0,0,1-.82-2.1Z"/><path class="cls-1" d="M24.48,46.07a4.44,4.44,0,0,1-1.38-.23,3.44,3.44,0,0,1-1.18-.64l.48-.77a4.56,4.56,0,0,0,1,.56,2.82,2.82,0,0,0,1,.2,1.48,1.48,0,0,0,.85-.21.68.68,0,0,0,.32-.6.56.56,0,0,0-.35-.53,7.42,7.42,0,0,0-1.1-.36c-.36-.09-.67-.19-.93-.27a2.64,2.64,0,0,1-.63-.31,1.13,1.13,0,0,1-.35-.41,1.33,1.33,0,0,1-.11-.56,1.79,1.79,0,0,1,.17-.78,1.68,1.68,0,0,1,.48-.58,2.16,2.16,0,0,1,.71-.36,3.07,3.07,0,0,1,.88-.12,3.7,3.7,0,0,1,1.21.2,3.21,3.21,0,0,1,1,.57l-.52.73A2.68,2.68,0,0,0,24.38,41a1.54,1.54,0,0,0-.77.19.76.76,0,0,0-.25.91.64.64,0,0,0,.22.21,1.55,1.55,0,0,0,.38.16l.59.16c.39.1.72.19,1,.29a2.46,2.46,0,0,1,.69.33,1.24,1.24,0,0,1,.41.45,1.32,1.32,0,0,1,.13.62,1.55,1.55,0,0,1-.62,1.31A2.67,2.67,0,0,1,24.48,46.07Z"/><path class="cls-1" d="M27.48,43.07a3.11,3.11,0,0,1,.2-1.14,2.84,2.84,0,0,1,.6-1,3,3,0,0,1,.94-.64,3.08,3.08,0,0,1,1.24-.24,2.9,2.9,0,0,1,1.53.39,2.46,2.46,0,0,1,1,1l-1.17.38a1.61,1.61,0,0,0-.56-.57,1.63,1.63,0,0,0-.79-.2,1.67,1.67,0,0,0-.67.14,1.81,1.81,0,0,0-.55.4,2,2,0,0,0-.36.61,2.2,2.2,0,0,0-.13.78,2,2,0,0,0,.14.78,1.93,1.93,0,0,0,.37.62,1.69,1.69,0,0,0,.55.41,1.53,1.53,0,0,0,.67.15,1.72,1.72,0,0,0,.44-.06,1.78,1.78,0,0,0,.4-.17,2,2,0,0,0,.32-.25,1,1,0,0,0,.2-.31l1.19.35a2.33,2.33,0,0,1-1,1.06,2.91,2.91,0,0,1-1.58.42,3,3,0,0,1-1.22-.25,3,3,0,0,1-.95-.65,3,3,0,0,1-.81-2.1Z"/><path class="cls-1" d="M35.53,46.07a2.21,2.21,0,0,1-.78-.14,1.8,1.8,0,0,1-.61-.38,1.66,1.66,0,0,1-.41-.57,1.72,1.72,0,0,1-.15-.72,1.53,1.53,0,0,1,.18-.74,1.59,1.59,0,0,1,.5-.57,2.4,2.4,0,0,1,.77-.37,3.32,3.32,0,0,1,1-.13,4.25,4.25,0,0,1,.8.07,4.17,4.17,0,0,1,.72.19v-.4a1.34,1.34,0,0,0-.36-1A1.44,1.44,0,0,0,36.12,41a2.62,2.62,0,0,0-.91.17,5.11,5.11,0,0,0-.91.49l-.38-.77a4.07,4.07,0,0,1,2.31-.75,2.66,2.66,0,0,1,1.85.61,2.23,2.23,0,0,1,.66,1.74v2.08c0,.25.11.38.32.39v1l-.3,0h-.25a.78.78,0,0,1-.55-.18.75.75,0,0,1-.23-.45l0-.36a2.48,2.48,0,0,1-.95.78A2.75,2.75,0,0,1,35.53,46.07Zm.33-.9a2.31,2.31,0,0,0,.83-.15,1.5,1.5,0,0,0,.61-.45.56.56,0,0,0,.23-.42v-.76a3.46,3.46,0,0,0-.65-.18,3.27,3.27,0,0,0-.68-.07,1.82,1.82,0,0,0-1.06.28.85.85,0,0,0-.42.74.93.93,0,0,0,.32.72A1.16,1.16,0,0,0,35.86,45.17Z"/><path class="cls-1" d="M40.21,37.93h1.21v6.36a.7.7,0,0,0,.17.5.56.56,0,0,0,.46.19,1.11,1.11,0,0,0,.28,0l.3-.1.18,1a3.13,3.13,0,0,1-.63.19,3.21,3.21,0,0,1-.65.07,1.32,1.32,0,0,1-1-.34,1.29,1.29,0,0,1-.35-1Z"/><path class="cls-1" d="M46.12,46.07a3,3,0,0,1-1.22-.24,2.85,2.85,0,0,1-.94-.64,3.15,3.15,0,0,1-.61-.95,3.23,3.23,0,0,1,0-2.29A3,3,0,0,1,44,41a2.73,2.73,0,0,1,.94-.65,3.07,3.07,0,0,1,1.23-.24,2.86,2.86,0,0,1,1.22.25,2.91,2.91,0,0,1,.93.64,3,3,0,0,1,.59.93,3.26,3.26,0,0,1,.2,1.12,2,2,0,0,1,0,.25,1.76,1.76,0,0,0,0,.19H44.43a1.85,1.85,0,0,0,.18.69,1.94,1.94,0,0,0,.38.54,1.7,1.7,0,0,0,.54.34,1.73,1.73,0,0,0,.64.12,1.84,1.84,0,0,0,.47-.06,1.55,1.55,0,0,0,.44-.17,1.6,1.6,0,0,0,.35-.28,1.31,1.31,0,0,0,.24-.37l1,.3a2.4,2.4,0,0,1-1,1.06A3,3,0,0,1,46.12,46.07Zm1.75-3.43a1.9,1.9,0,0,0-.18-.67,1.84,1.84,0,0,0-.38-.52,1.74,1.74,0,0,0-.54-.33,1.79,1.79,0,0,0-.65-.13,1.7,1.7,0,0,0-.64.13,1.87,1.87,0,0,0-.54.33,1.81,1.81,0,0,0-.37.52,2.14,2.14,0,0,0-.18.67Z"/></g></g></svg>