<svg xmlns="http://www.w3.org/2000/svg" viewBox="0 0 71 71"><defs><style>.cls-1{fill:#0647ff;}</style></defs><title>intrAsset 37</title><g id="Layer_2" data-name="Layer 2"><g id="selected"><path class="cls-1" d="M35.5,71A35.5,35.5,0,1,1,71,35.5,35.55,35.55,0,0,1,35.5,71Zm0-70A34.5,34.5,0,1,0,70,35.5,34.54,34.54,0,0,0,35.5,1Z"/><path class="cls-1" d="M26.4,33.07a2.25,2.25,0,0,1-1.22-.33,2.44,2.44,0,0,1-.83-.86V35.3H23.14V27.2H24.2v1a2.53,2.53,0,0,1,.86-.83,2.31,2.31,0,0,1,1.18-.31,2.36,2.36,0,0,1,1.09.25,2.68,2.68,0,0,1,.85.64,2.87,2.87,0,0,1,.57,1,3.09,3.09,0,0,1,.2,1.13,3.79,3.79,0,0,1-.18,1.18,3,3,0,0,1-.53.94,2.64,2.64,0,0,1-.81.64A2.2,2.2,0,0,1,26.4,33.07ZM26,32a1.5,1.5,0,0,0,.7-.16,1.86,1.86,0,0,0,.53-.44,2.16,2.16,0,0,0,.35-.63,2.28,2.28,0,0,0,.12-.73,1.84,1.84,0,0,0-.14-.74,1.93,1.93,0,0,0-.37-.62,1.69,1.69,0,0,0-1.28-.57,1.46,1.46,0,0,0-.49.09,1.84,1.84,0,0,0-.85.6,1.1,1.1,0,0,0-.23.44v1.51a2,2,0,0,0,.28.49,2.12,2.12,0,0,0,.39.4,1.81,1.81,0,0,0,.47.26A1.34,1.34,0,0,0,26,32Z"/><path class="cls-1" d="M30,26.26V24.93h1.21v1.33ZM30,33V27.2h1.21V33Z"/><path class="cls-1" d="M35.91,32.66l-.64.25a2.73,2.73,0,0,1-.87.13,1.9,1.9,0,0,1-.54-.07,1.23,1.23,0,0,1-.44-.23,1.17,1.17,0,0,1-.31-.41,1.5,1.5,0,0,1-.11-.6V28.14h-.76V27.2H33V25.31h1.21V27.2h1.26v.94H34.21v3.21a.61.61,0,0,0,.19.44.64.64,0,0,0,.43.14,1.28,1.28,0,0,0,.48-.09,1.75,1.75,0,0,0,.34-.14Z"/><path class="cls-1" d="M36.23,30.07a3.11,3.11,0,0,1,.2-1.14A2.84,2.84,0,0,1,37,28a3,3,0,0,1,.94-.64,3.08,3.08,0,0,1,1.24-.24,2.9,2.9,0,0,1,1.53.39,2.46,2.46,0,0,1,1,1l-1.17.38a1.61,1.61,0,0,0-.56-.57,1.63,1.63,0,0,0-.79-.2,1.67,1.67,0,0,0-.67.14,1.81,1.81,0,0,0-.55.4,2,2,0,0,0-.36.61,2.2,2.2,0,0,0-.13.78,2,2,0,0,0,.14.78,1.93,1.93,0,0,0,.37.62,1.69,1.69,0,0,0,.55.41,1.53,1.53,0,0,0,.67.15,1.72,1.72,0,0,0,.44-.06,1.78,1.78,0,0,0,.4-.17,2,2,0,0,0,.32-.25,1,1,0,0,0,.2-.31l1.19.35a2.33,2.33,0,0,1-1,1.06,2.94,2.94,0,0,1-1.58.42A3,3,0,0,1,38,32.82a3,3,0,0,1-1-.65,3,3,0,0,1-.6-1A3.13,3.13,0,0,1,36.23,30.07Z"/><path class="cls-1" d="M47.91,33H46.7V29.73a2,2,0,0,0-.28-1.17,1,1,0,0,0-.81-.38,1.32,1.32,0,0,0-.51.1,1.94,1.94,0,0,0-.48.28,2.35,2.35,0,0,0-.4.43,1.92,1.92,0,0,0-.26.54V33H42.75v-8H44v3.43a2.42,2.42,0,0,1,.89-.93,2.45,2.45,0,0,1,1.24-.33,1.8,1.8,0,0,1,.89.2,1.42,1.42,0,0,1,.55.51,2.13,2.13,0,0,1,.3.74,5.11,5.11,0,0,1,.08.9Z"/><path class="cls-1" d="M16.38,43.07a3.12,3.12,0,0,1,.21-1.14,2.56,2.56,0,0,1,.6-1,2.85,2.85,0,0,1,.94-.64,3,3,0,0,1,1.23-.24,2.9,2.9,0,0,1,1.53.39,2.46,2.46,0,0,1,1,1l-1.17.38a1.49,1.49,0,0,0-1.34-.77,1.69,1.69,0,0,0-.68.14,1.81,1.81,0,0,0-.55.4,2,2,0,0,0-.36.61,2.32,2.32,0,0,0,0,1.56,1.93,1.93,0,0,0,.37.62,1.69,1.69,0,0,0,.55.41,1.53,1.53,0,0,0,.67.15,1.72,1.72,0,0,0,.44-.06,1.78,1.78,0,0,0,.4-.17,1.61,1.61,0,0,0,.32-.25,1,1,0,0,0,.2-.31l1.19.35a2.33,2.33,0,0,1-1,1.06,2.91,2.91,0,0,1-1.58.42,3,3,0,0,1-1.22-.25,2.87,2.87,0,0,1-.94-.65,3,3,0,0,1-.61-1A3.13,3.13,0,0,1,16.38,43.07Z"/><path class="cls-1" d="M28.06,46H26.85V42.73a2,2,0,0,0-.28-1.17,1,1,0,0,0-.81-.38,1.32,1.32,0,0,0-.51.1,2.14,2.14,0,0,0-.48.28,2.35,2.35,0,0,0-.4.43,2.24,2.24,0,0,0-.26.54V46H22.9v-8h1.21v3.43a2.41,2.41,0,0,1,2.13-1.26,1.8,1.8,0,0,1,.89.2,1.42,1.42,0,0,1,.55.51,2.13,2.13,0,0,1,.3.74,5.11,5.11,0,0,1,.08.9Z"/><path class="cls-1" d="M31,46.07a2.21,2.21,0,0,1-.78-.14,2,2,0,0,1-.62-.38,1.78,1.78,0,0,1-.4-.57,1.72,1.72,0,0,1-.15-.72,1.64,1.64,0,0,1,.17-.74,1.81,1.81,0,0,1,.5-.57,2.62,2.62,0,0,1,.77-.37,3.44,3.44,0,0,1,1-.13,4.25,4.25,0,0,1,.8.07,4.43,4.43,0,0,1,.72.19v-.4a1.3,1.3,0,0,0-.37-1,1.41,1.41,0,0,0-1-.36,2.62,2.62,0,0,0-.91.17,5.17,5.17,0,0,0-.92.49l-.37-.77a4.07,4.07,0,0,1,2.31-.75,2.66,2.66,0,0,1,1.85.61,2.23,2.23,0,0,1,.66,1.74v2.08c0,.25.1.38.32.39v1l-.31,0H34a.78.78,0,0,1-.55-.18.66.66,0,0,1-.23-.45l0-.36a2.48,2.48,0,0,1-.95.78A2.78,2.78,0,0,1,31,46.07Zm.33-.9a2.31,2.31,0,0,0,.83-.15,1.5,1.5,0,0,0,.61-.45.56.56,0,0,0,.23-.42v-.76a3.57,3.57,0,0,0-.66-.18,3.11,3.11,0,0,0-.67-.07,1.85,1.85,0,0,0-1.07.28.87.87,0,0,0-.41.74.93.93,0,0,0,.32.72A1.14,1.14,0,0,0,31.33,45.17Z"/><path class="cls-1" d="M40.83,46H39.62V42.73a2.13,2.13,0,0,0-.26-1.18.86.86,0,0,0-.76-.37,1.39,1.39,0,0,0-.53.1,2.06,2.06,0,0,0-.5.28,2.4,2.4,0,0,0-.41.43,2.31,2.31,0,0,0-.28.54V46H35.67V40.2h1.1v1.16a2.31,2.31,0,0,1,1-.92,2.94,2.94,0,0,1,1.38-.34,1.75,1.75,0,0,1,.85.19,1.49,1.49,0,0,1,.52.51,2.23,2.23,0,0,1,.27.75,5.11,5.11,0,0,1,.08.9Z"/><path class="cls-1" d="M44.51,46a2.48,2.48,0,0,1-1.89-.88,3.07,3.07,0,0,1-.54-.93,3.25,3.25,0,0,1-.19-1.12,3.44,3.44,0,0,1,.19-1.16,3.23,3.23,0,0,1,.55-.94,2.76,2.76,0,0,1,.84-.64,2.45,2.45,0,0,1,1.09-.24,2.19,2.19,0,0,1,1.21.33,2.85,2.85,0,0,1,.87.86V40.2H47.7v5.59a2.45,2.45,0,0,1-.23,1.11,2.34,2.34,0,0,1-.64.82,2.9,2.9,0,0,1-1,.51,4,4,0,0,1-1.21.18,3.41,3.41,0,0,1-1.59-.33,2.89,2.89,0,0,1-1.06-.9l.68-.64a2.07,2.07,0,0,0,.85.7,2.65,2.65,0,0,0,1.12.24,2.76,2.76,0,0,0,.71-.09,1.62,1.62,0,0,0,.58-.31,1.54,1.54,0,0,0,.41-.53,1.94,1.94,0,0,0,.14-.76v-.88a2,2,0,0,1-.84.81A2.3,2.3,0,0,1,44.51,46Zm.4-1a1.6,1.6,0,0,0,.53-.09,2.12,2.12,0,0,0,.47-.25,1.8,1.8,0,0,0,.36-.37,1.1,1.1,0,0,0,.22-.43V42.38a1.89,1.89,0,0,0-.28-.5,2.11,2.11,0,0,0-.4-.39,1.87,1.87,0,0,0-.48-.26,1.52,1.52,0,0,0-.51-.09,1.41,1.41,0,0,0-.71.17,1.63,1.63,0,0,0-.53.45,2.13,2.13,0,0,0-.34.63,2.28,2.28,0,0,0-.12.73,2,2,0,0,0,.13.74,2,2,0,0,0,.38.6,2,2,0,0,0,.57.42A1.67,1.67,0,0,0,44.91,45Z"/><path class="cls-1" d="M51.76,46.07a3.05,3.05,0,0,1-1.22-.24A3,3,0,0,1,49,42a2.79,2.79,0,0,1,.6-1,2.83,2.83,0,0,1,.94-.65,3.07,3.07,0,0,1,1.23-.24,2.83,2.83,0,0,1,1.22.25,2.91,2.91,0,0,1,.93.64,2.83,2.83,0,0,1,.59.93,3.26,3.26,0,0,1,.2,1.12,2,2,0,0,1,0,.25c0,.08,0,.14,0,.19H50.07a1.85,1.85,0,0,0,.18.69,1.78,1.78,0,0,0,.39.54,1.55,1.55,0,0,0,.53.34,1.77,1.77,0,0,0,.64.12,2,2,0,0,0,.48-.06,1.53,1.53,0,0,0,.78-.45,1.12,1.12,0,0,0,.24-.37l1,.3a2.4,2.4,0,0,1-1,1.06A3,3,0,0,1,51.76,46.07Zm1.75-3.43a1.9,1.9,0,0,0-.18-.67,1.84,1.84,0,0,0-.38-.52,1.63,1.63,0,0,0-.54-.33,1.67,1.67,0,0,0-1.29,0,1.69,1.69,0,0,0-.53.33,1.66,1.66,0,0,0-.38.52,2.13,2.13,0,0,0-.17.67Z"/></g></g></svg>