<?xml version="1.0" encoding="utf-8"?>
<!-- Generator: Adobe Illustrator 23.0.1, SVG Export Plug-In . SVG Version: 6.00 Build 0)  -->
<svg version="1.1" id="Layer_1" xmlns="http://www.w3.org/2000/svg" xmlns:xlink="http://www.w3.org/1999/xlink" x="0px" y="0px"
	 viewBox="0 0 71 71" style="enable-background:new 0 0 71 71;" xml:space="preserve">
<style type="text/css">
	.st0{fill:none;stroke:#0647FF;stroke-miterlimit:10;}
	.st1{fill:none;stroke:#0647FF;stroke-miterlimit:10;stroke-dasharray:2.95,2.95;}
</style>
<title>icon-gateAsset 6</title>
<g>
	<g id="selected">
		<circle class="st0" cx="35.5" cy="35.5" r="35"/>
		<path class="st0" d="M55.9,13.7c-2.6,0-3.7,7.3-5,15.1c-1.1,6.9-2.3,14.7-4.4,14.7s-3.3-5.2-4.4-10.2c-1.2-5.5-2.4-10.6-5-10.6
			s-3.7,5.2-5,10.6c-1.1,5-2.3,10.2-4.4,10.2s-3.3-3-4.4-6c-1.2-3.1-2.4-6.3-4.9-6.3s-3.8,3.2-4.9,6.3c-1.1,2.9-2.3,6-4.4,6l0,0
			c-0.2,0-0.3,0.1-0.3,0.3c0,0.1,0.1,0.3,0.3,0.3l0,0l0,0c2.5,0,3.7-3.2,4.9-6.3c1.1-2.9,2.3-6,4.4-6s3.3,3,4.4,6
			c1.2,3.1,2.4,6.3,4.9,6.3s3.7-5.2,5-10.6c1.1-5,2.3-10.2,4.4-10.2s3.3,5.2,4.4,10.2c1.2,5.5,2.4,10.6,4.9,10.6s3.7-7,5-15.1
			c1.1-6.9,2.3-14.6,4.4-14.6c0.2,0,0.3-0.2,0.2-0.3C56.1,13.8,56,13.7,55.9,13.7L55.9,13.7z"/>
		<line class="st0" x1="11.9" y1="28.9" x2="13.4" y2="28.9"/>
		<line class="st1" x1="16.3" y1="28.9" x2="56.2" y2="28.9"/>
		<line class="st0" x1="57.7" y1="28.9" x2="59.2" y2="28.9"/>
	</g>
</g>
</svg>
