<svg xmlns="http://www.w3.org/2000/svg" viewBox="0 0 71 71"><defs><style>.cls-1{fill:none;stroke:#0647ff;stroke-miterlimit:10;}</style></defs><title>icon-scale-diatAsset 4</title><g id="Layer_2" data-name="Layer 2"><g id="selected"><circle class="cls-1" cx="35.5" cy="35.5" r="35"/><polygon class="cls-1" points="17.07 23.92 22.73 23.92 25.92 27.11 25.92 58.05 19.9 58.05 17.07 54.74 17.07 23.92"/><polyline class="cls-1" points="17.07 54.74 22.73 54.74 22.73 23.92"/><polygon class="cls-1" points="45.08 12.96 50.73 12.96 53.93 16.15 53.93 47.08 47.91 47.08 45.08 43.78 45.08 12.96"/><polyline class="cls-1" points="45.08 43.78 50.73 43.78 50.73 12.96"/><polygon class="cls-1" points="31.08 18.44 36.73 18.44 39.92 21.63 39.92 52.56 33.91 52.56 31.08 49.26 31.08 18.44"/><polyline class="cls-1" points="31.08 49.26 36.73 49.26 36.73 18.44"/></g></g></svg>