<svg xmlns="http://www.w3.org/2000/svg" viewBox="0 0 71 71"><defs><style>.cls-1{fill:none;stroke:#0647ff;stroke-miterlimit:10;}.cls-2{fill:#0647ff;}</style></defs><title>icon-scale-chromAsset 5</title><g id="Layer_2" data-name="Layer 2"><g id="selected"><circle class="cls-1" cx="35.5" cy="35.5" r="35"/><polygon class="cls-1" points="16.07 23.92 21.73 23.92 24.92 27.11 24.92 58.05 18.9 58.05 16.07 54.74 16.07 23.92"/><polyline class="cls-1" points="16.07 54.74 21.73 54.74 21.73 23.92"/><rect class="cls-2" x="25.67" y="18.91" width="3.61" height="19.71"/><polygon class="cls-1" points="25.67 38.62 25.67 18.91 29.28 18.91 31.32 20.95 31.32 40.73 27.48 40.73 25.67 38.62"/><polyline class="cls-1" points="25.67 38.62 29.28 38.62 29.28 18.91"/><rect class="cls-2" x="39.67" y="13.95" width="3.61" height="19.71"/><polygon class="cls-1" points="39.67 33.66 39.67 13.95 43.28 13.95 45.32 15.99 45.32 35.77 41.48 35.77 39.67 33.66"/><polyline class="cls-1" points="39.67 33.66 43.28 33.66 43.28 13.95"/><polygon class="cls-1" points="46.08 12.96 51.73 12.96 54.93 16.15 54.93 47.08 48.91 47.08 46.08 43.78 46.08 12.96"/><polyline class="cls-1" points="46.08 43.78 51.73 43.78 51.73 12.96"/><polygon class="cls-1" points="31.08 18.44 36.73 18.44 39.92 21.63 39.92 52.56 33.91 52.56 31.08 49.26 31.08 18.44"/><polyline class="cls-1" points="31.08 49.26 36.73 49.26 36.73 18.44"/></g></g></svg>