<?xml version="1.0" encoding="utf-8"?>
<!-- Generator: Adobe Illustrator 23.0.1, SVG Export Plug-In . SVG Version: 6.00 Build 0)  -->
<svg version="1.1" id="Layer_1" xmlns="http://www.w3.org/2000/svg" xmlns:xlink="http://www.w3.org/1999/xlink" x="0px" y="0px"
	 viewBox="0 0 104.2 104.2" style="enable-background:new 0 0 104.2 104.2;" xml:space="preserve">
<style type="text/css">
	.st0{fill:#0647FF;}
	.st1{fill:none;}
	.st2{fill:none;stroke:#33CB84;stroke-miterlimit:10;}
</style>
<rect x="0.3" y="0.3" class="st0" width="103.8" height="103.8"/>
<title>BG-turquAsset 10</title>
<g>
	<g id="chord_progression">
		<line class="st1" x1="33.6" y1="0.3" x2="26.2" y2="0.3"/>
		<line class="st1" x1="41" y1="0.3" x2="33.6" y2="0.3"/>
		<line class="st1" x1="26.2" y1="0.3" x2="18.8" y2="0.3"/>
		<line class="st1" x1="11.4" y1="0.3" x2="4.1" y2="0.3"/>
		<polyline class="st1" points="103.8,100.1 103.8,103.8 100.1,103.8 		"/>
		<line class="st1" x1="18.8" y1="0.3" x2="11.4" y2="0.3"/>
		<line class="st1" x1="55.8" y1="0.3" x2="48.4" y2="0.3"/>
		<line class="st1" x1="85.4" y1="0.3" x2="78" y2="0.3"/>
		<line class="st1" x1="48.4" y1="0.3" x2="41" y2="0.3"/>
		<line class="st1" x1="78" y1="0.3" x2="70.6" y2="0.3"/>
		<line class="st1" x1="92.8" y1="0.3" x2="85.4" y2="0.3"/>
		<polyline class="st1" points="4.1,0.3 0.3,0.3 0.3,4 		"/>
		<line class="st1" x1="63.2" y1="0.3" x2="55.8" y2="0.3"/>
		<line class="st1" x1="70.6" y1="0.3" x2="63.2" y2="0.3"/>
		<line class="st1" x1="0.3" y1="63.2" x2="0.3" y2="70.6"/>
		<line class="st1" x1="0.3" y1="55.8" x2="0.3" y2="63.2"/>
		<line class="st1" x1="0.3" y1="70.6" x2="0.3" y2="78"/>
		<line class="st1" x1="100.2" y1="0.3" x2="92.8" y2="0.3"/>
		<line class="st1" x1="0.3" y1="78" x2="0.3" y2="85.4"/>
		<polyline class="st1" points="0.3,100.2 0.3,103.8 4,103.8 		"/>
		<line class="st1" x1="0.3" y1="85.4" x2="0.3" y2="92.8"/>
		<line class="st1" x1="0.3" y1="92.8" x2="0.3" y2="100.2"/>
		<line class="st1" x1="0.3" y1="4" x2="0.3" y2="11.4"/>
		<line class="st1" x1="0.3" y1="18.8" x2="0.3" y2="26.2"/>
		<line class="st1" x1="0.3" y1="11.4" x2="0.3" y2="18.8"/>
		<line class="st1" x1="0.3" y1="48.4" x2="0.3" y2="55.8"/>
		<line class="st1" x1="0.3" y1="26.2" x2="0.3" y2="33.6"/>
		<line class="st1" x1="0.3" y1="41" x2="0.3" y2="48.4"/>
		<line class="st1" x1="0.3" y1="33.6" x2="0.3" y2="41"/>
		<line class="st1" x1="55.7" y1="103.8" x2="63.1" y2="103.8"/>
		<line class="st1" x1="48.3" y1="103.8" x2="55.7" y2="103.8"/>
		<line class="st1" x1="70.5" y1="103.8" x2="77.9" y2="103.8"/>
		<line class="st1" x1="63.1" y1="103.8" x2="70.5" y2="103.8"/>
		<line class="st1" x1="77.9" y1="103.8" x2="85.3" y2="103.8"/>
		<line class="st1" x1="85.3" y1="103.8" x2="92.7" y2="103.8"/>
		<line class="st1" x1="92.7" y1="103.8" x2="100.1" y2="103.8"/>
		<line class="st1" x1="33.5" y1="103.8" x2="41" y2="103.8"/>
		<line class="st1" x1="11.4" y1="103.8" x2="18.8" y2="103.8"/>
		<line class="st1" x1="41" y1="103.8" x2="48.3" y2="103.8"/>
		<line class="st1" x1="4" y1="103.8" x2="11.4" y2="103.8"/>
		<line class="st1" x1="18.8" y1="103.8" x2="26.2" y2="103.8"/>
		<line class="st1" x1="26.2" y1="103.8" x2="33.5" y2="103.8"/>
		<line class="st1" x1="103.8" y1="100.1" x2="103.8" y2="92.7"/>
		<line class="st1" x1="103.8" y1="85.3" x2="103.8" y2="77.9"/>
		<line class="st1" x1="103.8" y1="33.5" x2="103.8" y2="26.2"/>
		<line class="st1" x1="103.8" y1="40.9" x2="103.8" y2="33.5"/>
		<line class="st1" x1="103.8" y1="26.2" x2="103.8" y2="18.8"/>
		<line class="st1" x1="103.8" y1="11.4" x2="103.8" y2="4"/>
		<line class="st1" x1="103.8" y1="48.3" x2="103.8" y2="40.9"/>
		<line class="st1" x1="103.8" y1="92.7" x2="103.8" y2="85.3"/>
		<line class="st1" x1="103.8" y1="18.8" x2="103.8" y2="11.4"/>
		<line class="st1" x1="103.8" y1="55.7" x2="103.8" y2="48.3"/>
		<polyline class="st1" points="103.8,4 103.8,0.3 100.2,0.3 		"/>
		<line class="st1" x1="103.8" y1="77.9" x2="103.8" y2="70.5"/>
		<line class="st1" x1="103.8" y1="70.5" x2="103.8" y2="63.1"/>
		<line class="st1" x1="103.8" y1="63.1" x2="103.8" y2="55.7"/>
		<line class="st2" x1="4" y1="103.8" x2="0.3" y2="100.2"/>
		<line class="st2" x1="11.4" y1="103.8" x2="0.3" y2="92.8"/>
		<line class="st2" x1="18.8" y1="103.8" x2="0.3" y2="85.4"/>
		<line class="st2" x1="26.2" y1="103.8" x2="0.3" y2="78"/>
		<line class="st2" x1="33.5" y1="103.8" x2="0.3" y2="70.6"/>
		<line class="st2" x1="41" y1="103.8" x2="0.3" y2="63.2"/>
		<line class="st2" x1="48.3" y1="103.8" x2="0.3" y2="55.8"/>
		<line class="st2" x1="55.7" y1="103.8" x2="0.3" y2="48.4"/>
		<line class="st2" x1="63.1" y1="103.8" x2="0.3" y2="41"/>
		<line class="st2" x1="70.5" y1="103.8" x2="0.3" y2="33.6"/>
		<line class="st2" x1="77.9" y1="103.8" x2="0.3" y2="26.2"/>
		<line class="st2" x1="85.3" y1="103.8" x2="0.3" y2="18.8"/>
		<line class="st2" x1="92.7" y1="103.8" x2="0.3" y2="11.4"/>
		<line class="st2" x1="100.1" y1="103.8" x2="0.3" y2="4"/>
		<line class="st2" x1="103.8" y1="100.1" x2="4.1" y2="0.3"/>
		<line class="st2" x1="103.8" y1="92.7" x2="11.4" y2="0.3"/>
		<line class="st2" x1="103.8" y1="85.3" x2="18.8" y2="0.3"/>
		<line class="st2" x1="103.8" y1="77.9" x2="26.2" y2="0.3"/>
		<line class="st2" x1="103.8" y1="70.5" x2="33.6" y2="0.3"/>
		<line class="st2" x1="103.8" y1="63.1" x2="41" y2="0.3"/>
		<line class="st2" x1="103.8" y1="55.7" x2="48.4" y2="0.3"/>
		<line class="st2" x1="103.8" y1="48.3" x2="55.8" y2="0.3"/>
		<line class="st2" x1="103.8" y1="40.9" x2="63.2" y2="0.3"/>
		<line class="st2" x1="103.8" y1="33.5" x2="70.6" y2="0.3"/>
		<line class="st2" x1="103.8" y1="26.2" x2="78" y2="0.3"/>
		<line class="st2" x1="103.8" y1="18.8" x2="85.4" y2="0.3"/>
		<line class="st2" x1="103.8" y1="11.4" x2="92.8" y2="0.3"/>
		<line class="st2" x1="103.8" y1="4" x2="100.2" y2="0.3"/>
	</g>
</g>
</svg>
