<?xml version="1.0" encoding="utf-8"?>
<!-- Generator: Adobe Illustrator 23.0.1, SVG Export Plug-In . SVG Version: 6.00 Build 0)  -->
<svg version="1.1" id="Layer_1" xmlns="http://www.w3.org/2000/svg" xmlns:xlink="http://www.w3.org/1999/xlink" x="0px" y="0px"
	 viewBox="0 0 104.2 104.2" style="enable-background:new 0 0 104.2 104.2;" xml:space="preserve">
<style type="text/css">
	.st0{opacity:0.5;}
	.st1{opacity:0.9;}
	.st2{fill:none;}
	.st3{fill:none;stroke:#0647FF;stroke-miterlimit:10;}
	.st4{fill:url(#SVGID_1_);}
	.st5{fill:url(#SVGID_2_);}
</style>
<title>BGAsset 9</title>
<g class="st0">
	<g id="chord_progression" class="st1">
		<line class="st2" x1="33.6" y1="0.3" x2="26.2" y2="0.3"/>
		<line class="st2" x1="41" y1="0.3" x2="33.6" y2="0.3"/>
		<line class="st2" x1="26.2" y1="0.3" x2="18.8" y2="0.3"/>
		<line class="st2" x1="11.4" y1="0.3" x2="4.1" y2="0.3"/>
		<polyline class="st2" points="103.8,100.1 103.8,103.8 100.1,103.8 		"/>
		<line class="st2" x1="18.8" y1="0.3" x2="11.4" y2="0.3"/>
		<line class="st2" x1="55.8" y1="0.3" x2="48.4" y2="0.3"/>
		<line class="st2" x1="85.4" y1="0.3" x2="78" y2="0.3"/>
		<line class="st2" x1="48.4" y1="0.3" x2="41" y2="0.3"/>
		<line class="st2" x1="78" y1="0.3" x2="70.6" y2="0.3"/>
		<line class="st2" x1="92.8" y1="0.3" x2="85.4" y2="0.3"/>
		<polyline class="st2" points="4.1,0.3 0.3,0.3 0.3,4 		"/>
		<line class="st2" x1="63.2" y1="0.3" x2="55.8" y2="0.3"/>
		<line class="st2" x1="70.6" y1="0.3" x2="63.2" y2="0.3"/>
		<line class="st2" x1="0.3" y1="63.2" x2="0.3" y2="70.6"/>
		<line class="st2" x1="0.3" y1="55.8" x2="0.3" y2="63.2"/>
		<line class="st2" x1="0.3" y1="70.6" x2="0.3" y2="78"/>
		<line class="st2" x1="100.2" y1="0.3" x2="92.8" y2="0.3"/>
		<line class="st2" x1="0.3" y1="78" x2="0.3" y2="85.4"/>
		<polyline class="st2" points="0.3,100.2 0.3,103.8 4,103.8 		"/>
		<line class="st2" x1="0.3" y1="85.4" x2="0.3" y2="92.8"/>
		<line class="st2" x1="0.3" y1="92.8" x2="0.3" y2="100.2"/>
		<line class="st2" x1="0.3" y1="4" x2="0.3" y2="11.4"/>
		<line class="st2" x1="0.3" y1="18.8" x2="0.3" y2="26.2"/>
		<line class="st2" x1="0.3" y1="11.4" x2="0.3" y2="18.8"/>
		<line class="st2" x1="0.3" y1="48.4" x2="0.3" y2="55.8"/>
		<line class="st2" x1="0.3" y1="26.2" x2="0.3" y2="33.6"/>
		<line class="st2" x1="0.3" y1="41" x2="0.3" y2="48.4"/>
		<line class="st2" x1="0.3" y1="33.6" x2="0.3" y2="41"/>
		<line class="st2" x1="55.7" y1="103.8" x2="63.1" y2="103.8"/>
		<line class="st2" x1="48.3" y1="103.8" x2="55.7" y2="103.8"/>
		<line class="st2" x1="70.5" y1="103.8" x2="77.9" y2="103.8"/>
		<line class="st2" x1="63.1" y1="103.8" x2="70.5" y2="103.8"/>
		<line class="st2" x1="77.9" y1="103.8" x2="85.3" y2="103.8"/>
		<line class="st2" x1="85.3" y1="103.8" x2="92.7" y2="103.8"/>
		<line class="st2" x1="92.7" y1="103.8" x2="100.1" y2="103.8"/>
		<line class="st2" x1="33.5" y1="103.8" x2="41" y2="103.8"/>
		<line class="st2" x1="11.4" y1="103.8" x2="18.8" y2="103.8"/>
		<line class="st2" x1="41" y1="103.8" x2="48.3" y2="103.8"/>
		<line class="st2" x1="4" y1="103.8" x2="11.4" y2="103.8"/>
		<line class="st2" x1="18.8" y1="103.8" x2="26.2" y2="103.8"/>
		<line class="st2" x1="26.2" y1="103.8" x2="33.5" y2="103.8"/>
		<line class="st2" x1="103.8" y1="100.1" x2="103.8" y2="92.7"/>
		<line class="st2" x1="103.8" y1="85.3" x2="103.8" y2="77.9"/>
		<line class="st2" x1="103.8" y1="33.5" x2="103.8" y2="26.2"/>
		<line class="st2" x1="103.8" y1="40.9" x2="103.8" y2="33.5"/>
		<line class="st2" x1="103.8" y1="26.2" x2="103.8" y2="18.8"/>
		<line class="st2" x1="103.8" y1="11.4" x2="103.8" y2="4"/>
		<line class="st2" x1="103.8" y1="48.3" x2="103.8" y2="40.9"/>
		<line class="st2" x1="103.8" y1="92.7" x2="103.8" y2="85.3"/>
		<line class="st2" x1="103.8" y1="18.8" x2="103.8" y2="11.4"/>
		<line class="st2" x1="103.8" y1="55.7" x2="103.8" y2="48.3"/>
		<polyline class="st2" points="103.8,4 103.8,0.3 100.2,0.3 		"/>
		<line class="st2" x1="103.8" y1="77.9" x2="103.8" y2="70.5"/>
		<line class="st2" x1="103.8" y1="70.5" x2="103.8" y2="63.1"/>
		<line class="st2" x1="103.8" y1="63.1" x2="103.8" y2="55.7"/>
		<line class="st3" x1="4" y1="103.8" x2="0.3" y2="100.2"/>
		<line class="st3" x1="11.4" y1="103.8" x2="0.3" y2="92.8"/>
		<line class="st3" x1="18.8" y1="103.8" x2="0.3" y2="85.4"/>
		<line class="st3" x1="26.2" y1="103.8" x2="0.3" y2="78"/>
		<line class="st3" x1="33.5" y1="103.8" x2="0.3" y2="70.6"/>
		<line class="st3" x1="41" y1="103.8" x2="0.3" y2="63.2"/>
		<line class="st3" x1="48.3" y1="103.8" x2="0.3" y2="55.8"/>
		<line class="st3" x1="55.7" y1="103.8" x2="0.3" y2="48.4"/>
		<line class="st3" x1="63.1" y1="103.8" x2="0.3" y2="41"/>
		<line class="st3" x1="70.5" y1="103.8" x2="0.3" y2="33.6"/>
		<line class="st3" x1="77.9" y1="103.8" x2="0.3" y2="26.2"/>
		<line class="st3" x1="85.3" y1="103.8" x2="0.3" y2="18.8"/>
		<line class="st3" x1="92.7" y1="103.8" x2="0.3" y2="11.4"/>
		<line class="st3" x1="100.1" y1="103.8" x2="0.3" y2="4"/>
		<line class="st3" x1="103.8" y1="100.1" x2="4.1" y2="0.3"/>
		<line class="st3" x1="103.8" y1="92.7" x2="11.4" y2="0.3"/>
		<line class="st3" x1="103.8" y1="85.3" x2="18.8" y2="0.3"/>
		<line class="st3" x1="103.8" y1="77.9" x2="26.2" y2="0.3"/>
		<line class="st3" x1="103.8" y1="70.5" x2="33.6" y2="0.3"/>
		<line class="st3" x1="103.8" y1="63.1" x2="41" y2="0.3"/>
		<line class="st3" x1="103.8" y1="55.7" x2="48.4" y2="0.3"/>
		<line class="st3" x1="103.8" y1="48.3" x2="55.8" y2="0.3"/>
		<line class="st3" x1="103.8" y1="40.9" x2="63.2" y2="0.3"/>
		<line class="st3" x1="103.8" y1="33.5" x2="70.6" y2="0.3"/>
		<line class="st3" x1="103.8" y1="26.2" x2="78" y2="0.3"/>
		<line class="st3" x1="103.8" y1="18.8" x2="85.4" y2="0.3"/>
		<line class="st3" x1="103.8" y1="11.4" x2="92.8" y2="0.3"/>
		<line class="st3" x1="103.8" y1="4" x2="100.2" y2="0.3"/>
	</g>
</g>
<linearGradient id="SVGID_1_" gradientUnits="userSpaceOnUse" x1="15.065" y1="-65.9361" x2="15.065" y2="-28.1943">
	<stop  offset="0.1906" style="stop-color:#FFFFFF"/>
	<stop  offset="1" style="stop-color:#F6FAFA"/>
</linearGradient>
<rect x="-123.1" y="-65.9" class="st4" width="276.3" height="37.7"/>
<image style="overflow:visible;" width="1254" height="686" xlink:href="../../../../../../../../Screen Shot 2018-12-03 at 11.17.54 AM.png"  transform="matrix(0.5 0 0 0.5 -799.8522 -506.8044)">
</image>
<linearGradient id="SVGID_2_" gradientUnits="userSpaceOnUse" x1="-1126.1289" y1="-750.7865" x2="-1126.1289" y2="-829.7994">
	<stop  offset="0.3557" style="stop-color:#0029E3"/>
	<stop  offset="0.7731" style="stop-color:#0039F5;stop-opacity:0.9"/>
	<stop  offset="0.8992" style="stop-color:#0070F5;stop-opacity:0.7"/>
	<stop  offset="1" style="stop-color:#F6FAFA;stop-opacity:0"/>
</linearGradient>
<rect x="-1195.3" y="-829.8" class="st5" width="138.3" height="79"/>
</svg>
