<?xml version="1.0" encoding="utf-8"?>
<!-- Generator: Adobe Illustrator 23.0.1, SVG Export Plug-In . SVG Version: 6.00 Build 0)  -->
<svg version="1.1" id="Layer_1" xmlns="http://www.w3.org/2000/svg" xmlns:xlink="http://www.w3.org/1999/xlink" x="0px" y="0px"
	 viewBox="0 0 104.2 104.2" style="enable-background:new 0 0 104.2 104.2;" xml:space="preserve">
<style type="text/css">
	.st0{opacity:0.75;}
	.st1{opacity:0.9;}
	.st2{fill:none;}
	.st3{fill:none;stroke:#0647FF;stroke-miterlimit:10;}
	.st4{fill:none;stroke:#000000;stroke-width:11;stroke-miterlimit:10;}
	.st5{fill:#FFFFFF;stroke:#231F20;stroke-miterlimit:10;}
	.st6{stroke:#231F20;stroke-width:0.5;stroke-miterlimit:10;}
	.st7{fill:none;stroke:#231F20;stroke-miterlimit:10;}
</style>
<title>BGAsset 9</title>
<g class="st0">
	<g id="chord_progression" class="st1">
		<line class="st2" x1="171.8" y1="45.3" x2="164.4" y2="45.3"/>
		<line class="st2" x1="179.2" y1="45.3" x2="171.8" y2="45.3"/>
		<line class="st2" x1="164.4" y1="45.3" x2="157" y2="45.3"/>
		<line class="st2" x1="149.6" y1="45.3" x2="142.3" y2="45.3"/>
		<polyline class="st2" points="242,145.1 242,148.8 238.3,148.8 		"/>
		<line class="st2" x1="157" y1="45.3" x2="149.6" y2="45.3"/>
		<line class="st2" x1="194" y1="45.3" x2="186.6" y2="45.3"/>
		<line class="st2" x1="223.6" y1="45.3" x2="216.2" y2="45.3"/>
		<line class="st2" x1="186.6" y1="45.3" x2="179.2" y2="45.3"/>
		<line class="st2" x1="216.2" y1="45.3" x2="208.8" y2="45.3"/>
		<line class="st2" x1="231" y1="45.3" x2="223.6" y2="45.3"/>
		<polyline class="st2" points="142.3,45.3 138.5,45.3 138.5,49 		"/>
		<line class="st2" x1="201.4" y1="45.3" x2="194" y2="45.3"/>
		<line class="st2" x1="208.8" y1="45.3" x2="201.4" y2="45.3"/>
		<line class="st2" x1="138.5" y1="108.2" x2="138.5" y2="115.6"/>
		<line class="st2" x1="138.5" y1="100.8" x2="138.5" y2="108.2"/>
		<line class="st2" x1="138.5" y1="115.6" x2="138.5" y2="123"/>
		<line class="st2" x1="238.4" y1="45.3" x2="231" y2="45.3"/>
		<line class="st2" x1="138.5" y1="123" x2="138.5" y2="130.4"/>
		<polyline class="st2" points="138.5,145.2 138.5,148.8 142.2,148.8 		"/>
		<line class="st2" x1="138.5" y1="130.4" x2="138.5" y2="137.8"/>
		<line class="st2" x1="138.5" y1="137.8" x2="138.5" y2="145.2"/>
		<line class="st2" x1="138.5" y1="49" x2="138.5" y2="56.4"/>
		<line class="st2" x1="138.5" y1="63.8" x2="138.5" y2="71.2"/>
		<line class="st2" x1="138.5" y1="56.4" x2="138.5" y2="63.8"/>
		<line class="st2" x1="138.5" y1="93.4" x2="138.5" y2="100.8"/>
		<line class="st2" x1="138.5" y1="71.2" x2="138.5" y2="78.6"/>
		<line class="st2" x1="138.5" y1="86" x2="138.5" y2="93.4"/>
		<line class="st2" x1="138.5" y1="78.6" x2="138.5" y2="86"/>
		<line class="st2" x1="193.9" y1="148.8" x2="201.3" y2="148.8"/>
		<line class="st2" x1="186.5" y1="148.8" x2="193.9" y2="148.8"/>
		<line class="st2" x1="208.7" y1="148.8" x2="216.1" y2="148.8"/>
		<line class="st2" x1="201.3" y1="148.8" x2="208.7" y2="148.8"/>
		<line class="st2" x1="216.1" y1="148.8" x2="223.5" y2="148.8"/>
		<line class="st2" x1="223.5" y1="148.8" x2="230.9" y2="148.8"/>
		<line class="st2" x1="230.9" y1="148.8" x2="238.3" y2="148.8"/>
		<line class="st2" x1="171.7" y1="148.8" x2="179.2" y2="148.8"/>
		<line class="st2" x1="149.6" y1="148.8" x2="157" y2="148.8"/>
		<line class="st2" x1="179.2" y1="148.8" x2="186.5" y2="148.8"/>
		<line class="st2" x1="142.2" y1="148.8" x2="149.6" y2="148.8"/>
		<line class="st2" x1="157" y1="148.8" x2="164.4" y2="148.8"/>
		<line class="st2" x1="164.4" y1="148.8" x2="171.7" y2="148.8"/>
		<line class="st2" x1="242" y1="145.1" x2="242" y2="137.7"/>
		<line class="st2" x1="242" y1="130.3" x2="242" y2="122.9"/>
		<line class="st2" x1="242" y1="78.5" x2="242" y2="71.2"/>
		<line class="st2" x1="242" y1="85.9" x2="242" y2="78.5"/>
		<line class="st2" x1="242" y1="71.2" x2="242" y2="63.8"/>
		<line class="st2" x1="242" y1="56.4" x2="242" y2="49"/>
		<line class="st2" x1="242" y1="93.3" x2="242" y2="85.9"/>
		<line class="st2" x1="242" y1="137.7" x2="242" y2="130.3"/>
		<line class="st2" x1="242" y1="63.8" x2="242" y2="56.4"/>
		<line class="st2" x1="242" y1="100.7" x2="242" y2="93.3"/>
		<polyline class="st2" points="242,49 242,45.3 238.4,45.3 		"/>
		<line class="st2" x1="242" y1="122.9" x2="242" y2="115.5"/>
		<line class="st2" x1="242" y1="115.5" x2="242" y2="108.1"/>
		<line class="st2" x1="242" y1="108.1" x2="242" y2="100.7"/>
		<line class="st3" x1="142.2" y1="148.8" x2="138.5" y2="145.2"/>
		<line class="st3" x1="149.6" y1="148.8" x2="138.5" y2="137.8"/>
		<line class="st3" x1="157" y1="148.8" x2="138.5" y2="130.4"/>
		<line class="st3" x1="164.4" y1="148.8" x2="138.5" y2="123"/>
		<line class="st3" x1="171.7" y1="148.8" x2="138.5" y2="115.6"/>
		<line class="st3" x1="179.2" y1="148.8" x2="138.5" y2="108.2"/>
		<line class="st3" x1="186.5" y1="148.8" x2="138.5" y2="100.8"/>
		<line class="st3" x1="193.9" y1="148.8" x2="138.5" y2="93.4"/>
		<line class="st3" x1="201.3" y1="148.8" x2="138.5" y2="86"/>
		<line class="st3" x1="208.7" y1="148.8" x2="138.5" y2="78.6"/>
		<line class="st3" x1="216.1" y1="148.8" x2="138.5" y2="71.2"/>
		<line class="st3" x1="223.5" y1="148.8" x2="138.5" y2="63.8"/>
		<line class="st3" x1="230.9" y1="148.8" x2="138.5" y2="56.4"/>
		<line class="st3" x1="238.3" y1="148.8" x2="138.5" y2="49"/>
		<line class="st3" x1="242" y1="145.1" x2="142.3" y2="45.3"/>
		<line class="st3" x1="242" y1="137.7" x2="149.6" y2="45.3"/>
		<line class="st3" x1="242" y1="130.3" x2="157" y2="45.3"/>
		<line class="st3" x1="242" y1="122.9" x2="164.4" y2="45.3"/>
		<line class="st3" x1="242" y1="115.5" x2="171.8" y2="45.3"/>
		<line class="st3" x1="242" y1="108.1" x2="179.2" y2="45.3"/>
		<line class="st3" x1="242" y1="100.7" x2="186.6" y2="45.3"/>
		<line class="st3" x1="242" y1="93.3" x2="194" y2="45.3"/>
		<line class="st3" x1="242" y1="85.9" x2="201.4" y2="45.3"/>
		<line class="st3" x1="242" y1="78.5" x2="208.8" y2="45.3"/>
		<line class="st3" x1="242" y1="71.2" x2="216.2" y2="45.3"/>
		<line class="st3" x1="242" y1="63.8" x2="223.6" y2="45.3"/>
		<line class="st3" x1="242" y1="56.4" x2="231" y2="45.3"/>
		<line class="st3" x1="242" y1="49" x2="238.4" y2="45.3"/>
	</g>
</g>
<g>
	<path d="M4816.7,1914.9c-1.7-27.9-3.3-55.8-4.6-83.8c-0.4-8.5-0.6-17-0.1-25.5c2-31.5,1.3-62.9-0.7-94.3
		c-0.4-5.9-0.1-11.8-0.1-19.2c38.2-1.1,74.5-1.9,110.9,5c-0.6-1.9-0.8-4-0.7-6.2c-0.8-1.2-1.1-2.7-0.7-4.1c0.3-1,0.7-2.1,0.9-3.1
		c0.1-0.4,0.2-0.9,0.3-1.3c0,0,0.1-1.3,0.1-1.5c0,0,0,0,0,0c-6.7-4.5-14.1-4-21.4-4.8c-18.9-2.2-37.8-3-56.8-0.9
		c-6.4,0.7-13,0.3-19.5-0.1c-38.9-2.5-77.8-4.2-116.8-2.1c-13,0.7-26,0.8-38.9,0.6c-25.5-0.5-50.9,1.5-76.4,2.3
		c-20.5,0.6-41,0.9-61.4,0.7c-36-0.3-72-1.5-107.9-1.6c-29,0-58,0.4-86.9,2c-37.4,2.1-74.9,2.2-112.3,2.5
		c-13.5,0.1-26.9,1.6-40.4,1.8c-35,0.5-69.9,0.9-104.9,0.9c-34.5,0-69,0.5-103.4-1c-38.5-1.7-77-1.1-115.4-2.4
		c-17.4-0.6-34.8-3.1-52.3-4.2c-28.9-1.8-57.6-6.7-86.7-5.4c-7.4,0.3-15-0.9-22.4-1c-29-0.2-58-0.4-86.9-0.1
		c-27,0.3-53.9-0.2-80.9-1.3c-7-0.3-14,0.1-21-0.2c-12-0.4-23.9-0.9-35.9-1.5c-13.5-0.6-27-1.4-40.4-1.8c-30.9-1-61.9-1.7-92.8-2.6
		c-7.5-0.2-15-0.8-22.5-0.3c-25,1.5-50,0.1-74.9-1.2c-10.5-0.6-21-0.2-31.5-0.9c-14.9-1-29.9-2.2-44.7-3.8
		c-12-1.3-23.8-1.4-35.8-0.7c-27.4,1.7-54.9-0.6-82.3-2.4c-16.4-1.1-32.9-2.4-49.4-2c-29.1,0.7-57.9-1.7-86.8-4.2
		c-16.5-1.4-32.8-2.9-49.4-1.1c-2.2,0.2-4.4,0.1-7.1-0.2c-0.7,1.6-2.1,2.8-4.4,2.8c-3.3,0-11.9,0.8-16.9,3.4
		c-0.3,3.3-0.4,6.7-0.1,10c3.6,1.6,9.3,1.1,12.7,1c1.6,0,3.1-0.1,4.7-0.2c2.9-0.8,5.7-1.8,8.5-2c16.5-1.1,32.8-0.6,49.3,1.3
		c21.3,2.4,42.8,4,64.2,4.3c28.5,0.4,56.9,0.3,85.3,3c26.8,2.5,53.8,3,80.8,1.6c11.4-0.6,22.9,1.4,34.3,2.5
		c40.8,3.9,81.7,5.7,122.7,5.2c25-0.3,50.1-1.1,74.9,0.6c25.5,1.8,50.9,1.1,76.3,2.2c2,0.1,4-0.1,6,0.2c25.8,4,51.9,1.7,77.8,3.3
		c18.5,1.1,36.9,2.9,55.4,2.3c18.5-0.6,36.9-1.3,55.4-1.6c11.5-0.2,23,0.1,34.4,0.4c19.9,0.5,39.9,0.8,59.8,1.7
		c15,0.7,29.9,1.6,44.8,3.4c33.8,4.1,67.6,5.8,101.6,6.1c29.5,0.2,58.9,1.9,88.4,2.2c42.5,0.5,84.9,0.5,127.4,0.5
		c29,0,58-0.5,86.9-0.9c20-0.3,39.9-1.2,59.9-1.6c7.4-0.2,14.8,0.2,22.7,0.4c3.4,8.9,2.8,17.5,2.9,25.8c0.4,23.5,0.3,46.9,0.6,70.4
		c0.1,4.5,0.7,9,1.2,13.4c1.7,14.9,3.5,29.7,5.2,44.6c0.4,4,0.4,8,0.3,12c-0.7,24-1.5,47.9-2.3,71.9c0,0.1,0,0.3,0,0.4
		c0.6,0.8,1.1,1.8,1.1,3.1c0.1,5.6,3.8,18.6,11.3,11.1c2.2-2.2,3.5-5.4,4.4-8.8c-0.4-1.9-0.8-3.6-0.9-5.3c-0.4-15-1.7-30-0.7-44.9
		c2.1-31.1-0.4-61.9-4.4-92.6c-0.4-3-1.1-5.9-1.2-8.9c-0.3-28.5-0.6-56.9-0.7-85.4c0-1.9,0.8-3.8,1.4-6.5c4.5-0.4,8.9-1.1,13.2-1.3
		c26.5-0.9,52.9-2.2,79.4-2.5c30.5-0.4,60.9-0.4,91.4,0.1c25.9,0.3,51.9,1.6,77.8,2.2c8.5,0.2,17,0.1,25.5-0.8
		c24.9-2.7,49.8-2.7,74.8-2.8c21.9-0.1,43.9-1.9,65.8-2.3c24-0.5,47.9-0.1,71.8,2.1c2.4,0.2,4.9,0.7,7.4,1c3.8,4.8,3.9,10.4,4,15.8
		c0.3,27.5,1,54.9,0.6,82.4c-0.6,38.5-0.6,76.9,2.2,115.3c0.4,5.5,0.5,11,0.5,16.5c0,1.6-0.5,3.2-1,5.4c4.9,3.4,9.8,6.9,15.2,9.5
		c0.2-0.1,0.3-0.2,0.5-0.3c0.6-0.3,1.2-0.7,1.7-1.1c0.4-3.8-0.1-7.9-0.1-11.6c0-0.7,0.1-1.3,0.3-1.8
		C4817.4,1919.4,4816.8,1917.2,4816.7,1914.9z"/>
	<path d="M4457.9,689.3c-4.6,9.1-10,16.1-17.5,21.4c-15.5,11-30.8,22.2-46.6,32.6c-7.9,5.2-16.7,8.8-25.1,13.2
		c-17.7,9.2-35,19.4-53.2,27.5c-21.9,9.7-44.2,18.6-68.3,21.3c-31.8,3.5-63.7,7.4-95.6,6.7c-49.4-1.1-98.9-3.2-146.9-17.2
		c-20.1-5.9-40-12.5-59.8-19.4c-36.3-12.8-72.3-26-105.3-46.4c-13.6-8.4-28.2-15.2-41.4-24.1c-29.2-19.5-54.8-43-77.6-69.9
		c-23.7-27.8-45.6-57-65-87.7c-15.4-24.4-27.8-50.8-40.3-76.9c-13.1-27.5-23.4-56.2-29.1-86.4c-3.3-17.6-9.8-34.7-12.4-52.4
		c-5.1-34-12.2-67.9-13.8-102.4c-0.7-16.4-0.1-33,0.8-49.4c1.1-19.9,3.1-39.8,4.6-59.8c2.1-26.9,6.8-53.4,13.9-79.5
		c4.4-16.4,8.9-32.7,13.7-49c9.1-30.8,21.3-60.4,36.2-88.6c13.9-26.5,28.6-52.7,47.4-76.3c7.8-9.7,16.6-18.7,24.9-28
		c14.7-16.4,29.3-32.8,44-49.1c1-1.1,2-2.3,3.1-3.2c13.2-10.7,26.3-21.4,39.7-31.8c3.5-2.7,7.6-4.8,11.7-6.6
		c4.6-2.1,9.4-3.4,15.2-0.2c-1,2-1.6,5.4-3,5.8c-22.5,6.9-37.4,24.6-55.1,38.2c-8.9,6.9-15.6,16.8-23.3,25.3
		c-10,11.1-20.2,22.1-30.1,33.4c-4.6,5.2-8.6,11-12.9,16.5c-23.8,30.5-42.9,63.8-58.9,98.9c-18.9,41.4-33.8,84.1-43.6,128.8
		c-7.5,34.3-11.3,68.9-13.5,103.8c-0.7,11.9-1.7,23.9-2.4,35.8c-1.7,28.1,1.9,55.8,6.2,83.5c1.9,12.3,3.3,24.7,5,37
		c1,6.9,1.5,13.9,3.2,20.6c5.3,21.8,11,43.6,16.8,65.3c7.4,27.6,17.8,54,31.1,79.3c10.9,20.7,21.5,41.8,34.2,61.4
		c19.5,30.2,40.1,59.8,64.5,86.4c26.7,29.1,56.1,55.7,91.1,74.7c28,15.2,56.1,30.4,86,42c23.3,9,47,16.8,70.2,25.8
		c22.9,8.9,46.9,13.5,71.1,17.3c32.6,5.1,65.5,7.2,98.5,7.2c24.9,0,49.9-1.1,74.7-4.8c11.8-1.8,23.8-2.6,35.6-4.5
		c6.3-1,12.6-2.9,18.7-5.2c16.4-6.1,32.2-13.5,47.6-21.8c15.7-8.6,31.9-16.4,48-24.3c16.2-8,30.7-18.6,45.1-29.4
		c8-6,15.5-12.5,23.4-18.6C4448.2,682.3,4451,682.9,4457.9,689.3z"/>
	<path d="M4658.6,1803.3c-7,0.7-13.8,2-20.7,2.1c-19.5,0.3-38.9,0-58.4,0.3c-9,0.1-17.9,1.2-26.8,1.8c-1.5,0.1-3,0.7-4.4,0.6
		c-26.8-1.7-53.8,3-80.6-2c-10.8-2-21.6-3.5-32.4-5.6c-7-1.3-11.3-4.9-12.1-12.9c-1.4-14.4-4.1-28.6-5.6-42.9
		c-1-8.9,1.5-11.8,10.3-13.1c14.3-2.1,28.6-4.6,43-5.4c10.9-0.6,21.8,1.3,32.8,1.9c8.9,0.4,17.9,0.5,26.8,0.6c2.5,0,5-0.6,7.5-0.2
		c21.4,3.4,42.8-0.1,64.2-0.5c18.4-0.4,36.9-0.2,55.4-0.3c5.1,0,8.4,2.5,10.2,7.2c5.2,13.8,6.4,28.2,5.2,42.7
		c-0.4,4.1-2.6,9.7-5.8,11.6C4661.6,1792.5,4660.6,1797.5,4658.6,1803.3z M4437.2,1776.7c2-1.4,3.7-2.4,5.1-3.6
		c17.1-14.6,17.7-14.8,38.7-14c0.5,0,1,0.1,1.5,0.1c13.4-0.1,26.9-0.2,40.3-0.4c11.4-0.1,22.9-0.3,34.3-0.3c10.9,0,21.9,0.6,32.8,0
		c7.9-0.5,15.7-2.4,23.5-4c7.7-1.6,14.8-1,21.1,4.3c6.1,5.1,12.2,10.2,18.4,15.3c1.7,1.4,2.8,4.5,6.6,2.5
		c1.2-10.1,1.8-20.4-4.4-30.1c-2.6-0.3-5-0.7-7.4-0.9c-26.4-1.9-52.8,0.5-79.2,1.3c-7.9,0.2-15.9,0.2-23.8,0.1
		c-6.5-0.1-12.9-1-19.4-0.9c-13,0.1-25.9,0.2-38.7-2.4c-4.8-1-10-0.5-14.9-0.1c-9.9,0.8-19.9,1.8-29.7,3.2c-3.2,0.4-6.1,2.4-9.1,3.6
		C4433.2,1759.7,4432.6,1768.2,4437.2,1776.7z M4456.9,1783.3c1.1,0.9,2.2,2.4,3.4,2.5c11.9,1.5,23.7,3.2,35.6,4
		c17.4,1.1,34.8-3.1,52.2-0.5c1.4,0.2,3-0.3,4.5-0.4c11.9-0.7,23.9-1.7,35.8-2c15-0.4,29.9-0.2,44.9-0.3c1.7,0,3.3-1,5.7-1.7
		c-7.8-11.2-17.5-14.8-29.2-11.9c-10.3,2.6-20.7,2.7-31.2,2.8c-14.5,0.1-28.9,0-43.4,0c-18.9,0-37.9,1.9-56.8,0.2
		c-3.5-0.3-7-0.2-10.5,0.2C4463.3,1776.8,4459.1,1778.3,4456.9,1783.3z"/>
	<path d="M3411.2-829.8c6.5,13.8,8.5,27.6,10.3,41.4c0.3,2.3-0.7,4.9-1.4,7.2c-1.9,5.8-3.9,7.3-9.9,5.6c-4.1-1.2-7.7-0.4-11.7,0
		c-8.4,0.9-16.9,1.3-25.3,1.3c-13,0.1-26-0.2-38.9-0.6c-27.9-0.9-55.8-2.5-83.7-3c-22-0.3-43.9,1-65.9,0.9c-9.9-0.1-19.9-1.5-29.7-3
		c-6.8-1.1-8-3.2-7.8-10.5c0.2-7.5,0.6-15,1.3-22.4c0.3-2.9,1.6-5.7,2.7-8.4c1.7-4.1,4.8-6.2,9.3-6.2c7-0.1,14-0.8,21-0.3
		c34.5,2.6,68.8-1.3,103.2-2.1c11.9-0.3,23.9-0.2,35.8,0.6c14,0.9,27.9,1.1,41.9-0.3c7.9-0.8,15.9-1.8,23.9-1.9
		C3394.1-831.3,3402-830.4,3411.2-829.8z M3160.9-794c3.6-1.9,5.8-3,7.9-4.2c20.4-11,20.4-10.9,42.6-8.4c19.8,2.3,39.7,2.9,59.7,1.5
		c13.9-1,27.9-0.4,41.8-0.6c6.5-0.1,12.9-0.3,19.4-0.5c19.4-0.7,38.9-1.4,58.3-2.2c4.3-0.2,7.8,0.9,10.6,4.3
		c1.1,1.2,2.4,3.4,4.7,1.8c-0.5-8.2-0.6-10.1-2.5-10.9c-2.7-1.1-5.6-2.2-8.5-2.2c-13,0.1-25.9,0.4-38.9,0.8
		c-6.5,0.2-12.9,1.2-19.4,1c-33.9-1.4-67.8-0.5-101.7,0.2c-12.9,0.2-25.9,0.4-38.8,0.9c-11.8,0.5-23.7-0.9-35.7,1.1
		C3158.7-805.6,3157.1-800.7,3160.9-794z M3329.4-791.9c0,0.8-0.1,1.6-0.1,2.4c15.3,0.8,30.5,1.6,45.8,2.3c4.4,0.2,8.9,0,13.4-0.2
		c2-0.1,3.9-0.7,3.7-3.8c-1.1-0.5-2.4-1.6-3.6-1.6C3368.8-792.6,3349.1-792.2,3329.4-791.9z M3209.2-790.8c-7.6-1.2-15.2-2.7-22.7,0
		C3194.1-788.5,3201.6-788.4,3209.2-790.8z"/>
</g>
<path class="st4" d="M4534,499.4c-70,292.6-333.2,510.1-647.3,510.1c-367.5,0-665.5-298-665.5-665.5s298-665.5,665.5-665.5
	c327.1,0,599.1,236,655,546.9"/>
<circle class="st4" cx="3886.7" cy="344" r="842.9"/>
<path class="st4" d="M4678.6,488.6c-68.1,375.5-396.8,660.3-791.9,660.3c-444.5,0-804.9-360.4-804.9-804.9s360.4-804.9,804.9-804.9
	c405.7,0,741.2,300.1,796.8,690.4"/>
<path class="st4" d="M982.2,249.7"/>
<path class="st4" d="M987.1-9.4c5.3,37.4,8.1,75.6,8.1,114.5"/>
<path class="st4" d="M4921.9,1918.2c-355.2,32.7-558,48.9-913.1,48.6c-348.6-0.3-849.5-16.5-1198.1-48.6
	c13.1-966.2,26.1-1932.3,39.2-2898.5h2032.8L4921.9,1918.2z"/>
<line class="st4" x1="2842.3" y1="-563.9" x2="4886.3" y2="-563.9"/>
<path class="st4" d="M4683.5,484.5h-98c-70.4,0-127.6-57.1-127.6-127.6v-0.3c0-70.4,57.1-127.6,127.6-127.6h98V484.5z"/>
<rect x="2975.3" y="-859.6" class="st4" width="618.4" height="240"/>
<g>
	<rect x="3724.4" y="-859.6" class="st4" width="1025" height="149.3"/>
	<circle class="st4" cx="3778" cy="-646.3" r="35.5"/>
</g>
<path class="st5" d="M-1951.7,360.8h-129.2c-4.4,0-8-3.6-8-8V228.9c0-4.4,3.6-8,8-8h129.2c4.4,0,8,3.6,8,8v123.9
	C-1943.7,357.2-1947.3,360.8-1951.7,360.8z"/>
<g>
	<g>
		<g>
			<path class="st6" d="M-2069.9,255.2c0.2,0,0.4,0.1,0.6,0.1c0,0,0-0.2,0-0.2c0-0.3,0-0.5-0.2-0.7c-0.3-0.4-0.5-0.8-0.7-1.2
				c-0.4-0.7-0.8-1.4-1.2-2.1c-0.1-0.1-0.2-0.2-0.2-0.4c-1.2-1.9-2.3-3.8-3.4-5.7c-0.2-0.3-0.4-0.6-0.5-0.9c0,0,0-0.1,0-0.1
				c-0.2-0.2-0.4-0.4-0.5-0.6c-0.2,0-0.3,0-0.4,0c0,0.2,0.1,0.4,0.2,0.6c0.3,0.5,0.5,1,0.8,1.4c1.3,2.1,2.6,4.2,3.8,6.3
				c0.3,0.6,0.6,1.1,0.9,1.7c0.2,0.4,0.4,0.9,0.6,1.2C-2070,254.8-2069.9,255-2069.9,255.2z"/>
		</g>
		<g>
			<path class="st6" d="M-2069.6,266.5C-2069.6,266.5-2069.6,266.5-2069.6,266.5c-0.1,0.5,0,0.9,0,1.4c0,0.7,0,1.4,0,2.2
				c0,0.7-0.1,1.4-0.1,2.2c0,0.8-0.1,1.7-0.1,2.5c-0.1,0.8-0.2,1.5-0.2,2.3c-0.2,2.1-0.4,4.2-0.6,6.3c-0.1,1.1-0.2,2.1-0.4,3.2
				c-0.4,3.1-0.9,6.2-1.3,9.3c-0.2,1.5-0.3,3.1-0.5,4.6c-0.1,0.9-0.3,1.9-0.4,2.8c-0.1,1.3-0.2,2.5-0.4,3.8
				c-0.4,3.6-0.5,7.2-0.5,10.7c0,1.4,0.1,2.8,0.3,4.1c0.2,1.5,0.8,2.9,1.6,4.1c0.3,0.4,0.3,0.8,0.2,1.3c-0.1,0.6-0.3,1.2-0.3,1.9
				c-0.1,1.7-0.1,3.4-0.1,5.1c0.2,0,0.3,0.1,0.5,0.2c0.1,0,0.2,0.1,0.2,0.1c0-1,0-1.9,0-2.9c0-1.2,0-2.4,0.3-3.7
				c0-0.4,0.1-0.9,0.3-1.3c0-0.3,0-0.6-0.1-0.9c-0.1-0.2-0.3-0.3-0.4-0.5c-0.8-1.1-1.3-2.4-1.5-3.8c-0.2-1.4-0.3-2.9-0.3-4.3
				c0-3.2,0.1-6.4,0.4-9.5c0.2-2.3,0.4-4.5,0.7-6.8c0.3-1.9,0.4-3.8,0.6-5.7c0.2-1.5,0.4-3,0.6-4.5c0.4-2.9,0.9-5.8,1.2-8.7
				c0.3-2.5,0.4-4.9,0.6-7.4c0.3-2.8,0.3-5.5,0.2-8.3C-2069.2,266.4-2069.4,266.4-2069.6,266.5z"/>
		</g>
		<g>
			<path class="st6" d="M-1976.4,328c-0.2-1.2-0.4-2.3-0.8-3.4c-0.2-0.7-0.6-1.4-0.8-2.1c-0.1-0.2-0.2-0.4-0.1-0.6
				c0.1-0.3,0.2-0.3,0.2-0.7c-0.2,0-0.4-0.4-0.6-0.4l0,0.1c0,0,0,0,0,0c0,0.1,0,0.2-0.1,0.3c0,0,0,0-0.1,0.1c0,1,0.2,1.9,0.5,2.8
				c0.3,0.7,0.5,1.4,0.7,2.1c0.3,1.2,0.4,2.5,0.6,3.7c0.1-0.1,0.1-0.1,0.2-0.2c0.1-0.1,0.3-0.2,0.5-0.3
				C-1976.2,329-1976.3,328.5-1976.4,328z"/>
		</g>
		<g>
			<path class="st6" d="M-1961.7,300.9c0,0.1,0,0.1,0.1,0.2c0.4,0.1,0.8,0.2,1.3,0.4c-0.5-0.4-0.7-1-0.9-1.7
				c-0.3-1.7-0.6-3.4-0.9-5.1c-0.5-2.7-1-5.5-1.4-8.2c-0.2-1.3-0.4-2.7-0.5-4c-0.1-0.9-0.2-1.9-0.4-2.8c-0.1-0.7-0.1-1.5-0.2-2.2
				c-0.1-1.3-0.2-2.5-0.3-3.8c-0.1-0.9-0.3-1.8-0.4-2.7c-0.4-2.2-0.8-4.5-1.3-6.7c-0.2-0.9-0.4-1.9-0.6-2.8c-0.2,0-0.5,0-0.6,0.1
				c0,0,0,0,0,0c0.4,2.1,0.8,4.2,1.2,6.3c0.6,2.8,1.1,5.7,1.3,8.6c0,0.6,0.1,1.1,0.1,1.7c0.2,1.5,0.4,3,0.5,4.4
				c0.3,2.8,0.7,5.6,1.2,8.3c0.3,1.6,0.5,3.2,0.8,4.8c0.3,1.7,0.7,3.4,1,5.1C-1961.8,300.7-1961.7,300.8-1961.7,300.9z"/>
		</g>
		<g>
			<path class="st6" d="M-1957.9,259.5c0.3,2.2,0.8,4.3,1.2,6.4c0.4,2.3,0.9,4.6,1.4,6.9c0.1,0.7,0.3,1.3,0.5,2
				c0.6,2.6,1.1,5.3,1.8,7.9c0.4,1.7,0.8,3.3,1.1,5c0.2,0.9,0.2,1.9,0.4,2.8c0.5,2.6,1,5.2,1.5,7.9c0.1,0.4,0.1,0.9,0.1,1.4
				c0,0.2,0,0.5-0.2,0.7c0.3-0.1,0.6-0.3,0.9-0.5c0-0.1,0-0.2,0-0.3c0-0.4-0.1-0.9-0.2-1.3c-0.4-1.9-0.7-3.8-1.1-5.7
				c-0.3-1.6-0.6-3.3-0.8-4.9c-0.3-2.3-0.9-4.5-1.5-6.7c-0.2-1-0.5-2.1-0.7-3.1c-0.3-1.5-0.6-2.9-0.9-4.4c-0.3-1.4-0.6-2.7-0.9-4.1
				c-0.5-2.7-1-5.5-1.5-8.2c-0.4-2-0.7-4.1-1.1-6.1c-0.2-1.3-0.6-2.6-0.9-3.9c-0.2-1.1-0.7-2.3-1.1-3.3c-0.1,0.2,0,0.6-0.2,0.7
				c-0.1,0.1-0.1-0.1-0.2-0.1c0.5,1.3,0.9,2.9,1.2,4.3C-1958.7,255.1-1958.2,257.3-1957.9,259.5z"/>
		</g>
	</g>
	<g>
		<path class="st6" d="M-2027.8,245.7c-15.8,0-34.7-1.7-35.3-1.7l-13.2,0.1l0-0.6l11.3-1.5c3.2-1.3,18.8-2.3,37.2-2.3
			c10.1,0,19.5,0.3,26.6,0.8c3.5,0.2,6.2,0.5,8.1,0.9c2.7,0.5,3.2,0.9,3.2,1.4c0,0.5-0.5,0.9-3.2,1.4c-1.9,0.3-4.6,0.6-8.1,0.9
			C-2008.3,245.4-2017.7,245.7-2027.8,245.7z M-2063.1,243.3L-2063.1,243.3c0.2,0,19.3,1.7,35.3,1.7c9.8,0,19-0.3,26-0.8
			c9.5-0.7,11-1.4,11.3-1.6c-0.2-0.2-1.8-1-11.3-1.6c-7-0.5-16.3-0.8-26-0.8c-18.2,0-34.1,1-37,2.2l0,0l-6.4,0.8L-2063.1,243.3z"/>
	</g>
	<g>
		<path class="st6" d="M-2026.3,335.6c-5.2,0-10.8-0.4-16.9-1.2c-10.1-1.3-19.5-3.9-28.6-7.9l0.3-0.6c9.1,4,18.5,6.5,28.5,7.9
			c6.2,0.8,11.8,1.2,17.1,1.2c6,0,11.6-0.5,17.2-1.6c6-1.1,11.4-2.8,17-5.1c5.6-2.5,9.8-4.7,13.5-7.1l0.4,0.5
			c-3.7,2.5-7.9,4.7-13.6,7.2c-5.7,2.4-11.1,4-17.2,5.2c-5.7,1.1-11.3,1.6-17.3,1.6C-2026.1,335.6-2026.2,335.6-2026.3,335.6z"/>
	</g>
	<g>
		<path class="st6" d="M-2025.3,343.6c-3.5,0-6.7-0.2-9.5-0.4c-12.9-0.8-25.6-3.8-37.6-8.9l0.2-0.6c12,5.1,24.6,8.1,37.4,8.9
			c4.7,0.3,10.2,0.6,16.8,0.1c8.1-0.6,16.1-2.3,23.6-5c6.2-2.2,12.1-5.1,17.6-8.6l0.3,0.5c-5.6,3.5-11.5,6.5-17.7,8.7
			c-7.6,2.7-15.6,4.4-23.8,5C-2020.5,343.5-2023,343.6-2025.3,343.6z"/>
	</g>
	<g>
		<path class="st6" d="M-1977.8,321.3l-0.6,0c0-1.4,0-2.8-0.1-4.2c-0.4-8.7-1.8-15.1-2.3-17.3l-0.1-0.2c-1.2-5.5-3.3-18.1-6.3-46.4
			l0.6-0.1c3,28.3,5.1,40.8,6.3,46.3l0.1,0.2c0.2,1,0.7,3.2,1.2,6.2c0.6,3.7,1,7.5,1.1,11.2
			C-1977.8,318.5-1977.8,319.9-1977.8,321.3z"/>
	</g>
	<g>
		<path class="st6" d="M-1968,261.4c0-0.2-0.2-2.2-1.2-4.4c-1-2.2-2.2-3.7-3.8-4.4c-0.9-0.4-2-0.5-4-0.4c-3.3,0.1-6.8,0.4-10.2,1.1
			l-0.1-0.6c3.5-0.7,7-1,10.3-1.1c2.3,0,3.3,0.1,4.2,0.5c1.7,0.8,3.1,2.4,4.2,4.7c0.7,1.7,1.1,3.5,1.2,4.6L-1968,261.4z"/>
	</g>
	<g>
		<path class="st6" d="M-1959.6,250.9c0-0.2-0.4-2.2-1.8-4.3c-1.5-2.2-3.4-3.7-5.9-4.4c-1.1-0.3-2.3-0.5-6.1-0.4c-0.5,0-1.2,0-1.8,0
			c-3.9,0-9.9,0.1-15.4,0.8l-0.1-0.6c5.6-0.7,11.5-0.7,15.5-0.8c0.7,0,1.3,0,1.8,0c3.8-0.1,5,0.1,6.3,0.5c2.6,0.8,4.7,2.3,6.2,4.7
			c1.1,1.7,1.7,3.6,1.9,4.6L-1959.6,250.9z"/>
	</g>
	<g>
		<path class="st6" d="M-1956.4,301.9c-1.7,0-3.4-0.3-5-0.9l0.2-0.6c1.7,0.7,3.5,0.9,5.4,0.9c2.3-0.1,4.4-0.7,6.1-1.7l0.3,0.5
			c-1.9,1.1-4,1.7-6.4,1.8C-1956,301.9-1956.2,301.9-1956.4,301.9z"/>
	</g>
	<g>
		<path class="st6" d="M-2069.7,267.1c0-1.3-0.1-2.7-0.1-4.1c0-2.6-0.1-5.4-0.2-8l0.6,0c0.1,2.7,0.1,5.4,0.2,8
			c0,1.3,0.1,2.7,0.1,4.1L-2069.7,267.1z"/>
	</g>
</g>
<g id="XMLID_1_">
	<g>
	</g>
	<g>
		<polyline class="st7" points="-2390.4,354.7 -2418.7,367.9 -2422.8,369.8 -2445.9,380.6 		"/>
		<polyline class="st7" points="-2431.1,302.5 -2358,270.2 -2285.6,238.1 -2226.1,211.8 -2178.8,256.1 -2243.6,286.3 -2310.4,317.4 
			-2386.5,352.9 		"/>
		<polyline class="st7" points="-2445.9,380.6 -2475.4,394.3 -2485.2,380.7 -2514.7,339.6 -2434.4,304 		"/>
		<polyline class="st7" points="-2178.8,256.1 -2178.8,306.4 -2468.2,447.5 -2505.8,394.3 -2514.7,339.6 		"/>
		<line class="st7" x1="-2475.4" y1="394.3" x2="-2468.2" y2="447.5"/>
		<polygon class="st7" points="-2434.4,258.7 -2440.9,303 -2514.7,334.5 -2514,329.9 -2507.6,287.2 -2438.1,260.1 		"/>
		<polygon class="st7" points="-2438.1,260.1 -2443.9,300 -2514,329.9 -2517.7,331.5 -2510.6,284.2 -2437.4,255.7 		"/>
		<line class="st7" x1="-2510.6" y1="284.2" x2="-2507.6" y2="287.2"/>
		<line class="st7" x1="-2437.4" y1="255.7" x2="-2434.4" y2="258.7"/>
		<line class="st7" x1="-2517.7" y1="331.5" x2="-2514.7" y2="334.5"/>
		<polygon class="st7" points="-2434.4,304 -2390.4,354.7 -2386.5,352.9 -2431.1,302.5 		"/>
		<polyline class="st7" points="-2474.7,375.8 -2474.8,375.9 -2485.2,380.7 		"/>
		<polyline class="st7" points="-2434.4,304 -2429.6,354.7 -2447.3,363 		"/>
		<line class="st7" x1="-2429.6" y1="354.7" x2="-2418.7" y2="367.9"/>
		<polygon class="st7" points="-2357.9,270.4 -2314.3,319 -2310.5,317.2 -2354.7,269 		"/>
		<polygon class="st7" points="-2285.5,238.3 -2288.7,239.8 -2243.7,286.1 -2240,284.3 		"/>
		<path class="st7" d="M-2276.6,390.9l17.8,7.1c4.5,1.8,6.6,6.8,4.9,11.3c-1.4,3.4-4.6,5.5-8.1,5.5c-1.1,0-2.2-0.2-3.2-0.6
			l-18.2-7.2l-17.5-7c-4.5-1.8-6.7-6.8-4.9-11.3c1.4-3.4,4.6-5.5,8.1-5.5c1.1,0,2.2,0.2,3.2,0.6L-2276.6,390.9z"/>
		<path class="st7" d="M-2207.7,405l-38.2-4c-4.8-0.5-8.2-4.8-7.7-9.5c0.5-4.5,4.2-7.8,8.6-7.8c0.3,0,0.6,0,0.9,0.1l38.2,4
			c4.8,0.5,8.2,4.8,7.8,9.5c-0.5,4.5-4.2,7.8-8.6,7.8C-2207.1,405-2207.4,405-2207.7,405z"/>
		<path class="st7" d="M-2295.1,423.8l-38.1,5.2c-4.8,0.6-9.1-2.7-9.8-7.5c-0.1-0.4-0.1-0.8-0.1-1.2c0-4.3,3.2-8,7.5-8.6l38.1-5.2
			c4.8-0.6,9.1,2.7,9.8,7.4c0.1,0.4,0.1,0.8,0.1,1.2C-2287.6,419.5-2290.8,423.2-2295.1,423.8z"/>
		<path class="st7" d="M-2276.6,390.9c-0.8,0.3-4.7,1.9-6.7,6.4c-2.1,4.7-0.4,8.9-0.1,9.6v0"/>
		<path class="st7" d="M-2445.9,380.6l-23.8-2.5c-1.9-0.2-3.7-1-5-2.3c-1.9-1.8-3-4.4-2.7-7.3c0.5-4.5,4.2-7.8,8.6-7.8
			c0.3,0,0.6,0,0.9,0l20.7,2.2l17.6,1.8c3,0.3,5.5,2.1,6.8,4.6"/>
	</g>
</g>
</svg>
