<?xml version="1.0" encoding="utf-8"?>
<!-- Generator: Adobe Illustrator 23.0.1, SVG Export Plug-In . SVG Version: 6.00 Build 0)  -->
<svg version="1.1" id="Layer_1" xmlns="http://www.w3.org/2000/svg" xmlns:xlink="http://www.w3.org/1999/xlink" x="0px" y="0px"
	 viewBox="0 0 101 115" style="enable-background:new 0 0 101 115;" xml:space="preserve">
<style type="text/css">
	.st0{display:none;}
	.st1{fill:none;stroke:#FFFFFF;stroke-miterlimit:10;}
</style>
<title>KETTLEAsset 16</title>
<g id="oQkdId_1_" class="st0">
	
		<image style="display:inline;overflow:visible;" width="179" height="281" id="oQkdId" xlink:href="3B6037D3EA4B463.jpg"  transform="matrix(0.3663 0 0 0.3663 11.4499 6.0311)">
	</image>
</g>
<g>
	<path class="st1" d="M33.3,101.9l-9.9-0.5c-5.6-0.3-9.5-5.1-8.7-10.7l7.5-54.2c0.8-5.6,6-10,11.6-9.7l9.9,0.5
		c5.6,0.3,9.5,5.1,8.7,10.7l-7.5,54.2C44.1,97.8,38.9,102.1,33.3,101.9z"/>
	<path class="st1" d="M49,29.3c3.5,1.8,6.7,5.4,5.9,12.1l-7.5,54.2c-0.8,5.6-6,10-11.6,9.7l-9.9-0.5c-3.7-0.2-8-3.7-9.3-6.8"/>
	<g>
		<ellipse transform="matrix(0.7224 -0.6915 0.6915 0.7224 -39.0959 35.2416)" class="st1" cx="24.3" cy="66.3" rx="3" ry="2.7"/>
		<ellipse transform="matrix(0.7224 -0.6915 0.6915 0.7224 -36.5516 44.1198)" class="st1" cx="36.7" cy="67.6" rx="4.5" ry="4.1"/>
		<ellipse transform="matrix(0.7224 -0.6915 0.6915 0.7224 -47.4124 36.6297)" class="st1" cx="21.9" cy="77.4" rx="3" ry="2.7"/>
		<ellipse transform="matrix(0.7224 -0.6915 0.6915 0.7224 -44.9383 44.9384)" class="st1" cx="33.5" cy="78.4" rx="4.5" ry="4.1"/>
	</g>
	<polygon class="st1" points="43.6,58.8 22,58 25,33.6 46.6,34.4 	"/>
</g>
<g>
	<circle class="st1" cx="77.4" cy="23.1" r="7.9"/>
	<g>
		<line class="st1" x1="77.4" y1="6.5" x2="77.4" y2="11.4"/>
		<line class="st1" x1="77.4" y1="34.9" x2="77.4" y2="39.8"/>
	</g>
	<g>
		<line class="st1" x1="77.4" y1="6.5" x2="77.4" y2="11.4"/>
		<line class="st1" x1="77.4" y1="34.9" x2="77.4" y2="39.8"/>
	</g>
	<g>
		<line class="st1" x1="62.3" y1="30.2" x2="66.7" y2="28.1"/>
		<line class="st1" x1="88" y1="18.2" x2="92.5" y2="16.1"/>
	</g>
	<g>
		<line class="st1" x1="92.5" y1="30.2" x2="88" y2="28.1"/>
		<line class="st1" x1="66.7" y1="18.2" x2="62.3" y2="16.1"/>
	</g>
</g>
</svg>
