<?xml version="1.0" encoding="utf-8"?>
<!-- Generator: Adobe Illustrator 23.0.1, SVG Export Plug-In . SVG Version: 6.00 Build 0)  -->
<svg version="1.1" id="Layer_1" xmlns="http://www.w3.org/2000/svg" xmlns:xlink="http://www.w3.org/1999/xlink" x="0px" y="0px"
	 viewBox="0 0 188.5 154.5" style="enable-background:new 0 0 188.5 154.5;" xml:space="preserve">
<style type="text/css">
	.st0{fill:none;stroke:#000000;stroke-miterlimit:10;}
	.st1{font-family:'Raleway-SemiBold';}
	.st2{font-size:11px;}
	.st3{font-family:'ArialMT';}
	.st4{font-size:9px;}
</style>
<title>PILLBOXAsset 18</title>
<g>
	<g id="selected">
		<polyline class="st0" points="74.4,79.1 61,85.3 59.1,86.2 48.2,91.3 		"/>
		<polyline class="st0" points="55.2,54.5 89.6,39.2 123.8,24.1 151.8,11.7 174.1,32.6 143.6,46.8 112.1,61.5 76.2,78.2 		"/>
		<polyline class="st0" points="48.2,91.3 34.3,97.8 29.7,91.3 15.8,71.9 53.6,55.2 		"/>
		<polyline class="st0" points="174.1,32.6 174.1,56.3 37.7,122.8 20,97.8 15.8,71.9 		"/>
		<line class="st0" x1="34.3" y1="97.8" x2="37.7" y2="122.8"/>
		<polygon class="st0" points="53.6,33.8 50.6,54.7 15.8,69.6 16.1,67.4 19.1,47.3 51.9,34.5 		"/>
		<polygon class="st0" points="51.9,34.5 49.1,53.3 16.1,67.4 14.4,68.1 17.7,45.9 52.2,32.4 		"/>
		<line class="st0" x1="17.7" y1="45.9" x2="19.1" y2="47.3"/>
		<line class="st0" x1="52.2" y1="32.4" x2="53.6" y2="33.8"/>
		<line class="st0" x1="14.4" y1="68.1" x2="15.8" y2="69.6"/>
		<polygon class="st0" points="53.6,55.2 74.4,79.1 76.2,78.2 55.2,54.5 		"/>
		<polyline class="st0" points="34.6,89 34.6,89.1 29.7,91.3 		"/>
		<polyline class="st0" points="53.6,55.2 55.9,79.1 47.6,83 		"/>
		<line class="st0" x1="55.9" y1="79.1" x2="61" y2="85.3"/>
		<polygon class="st0" points="89.7,39.3 110.2,62.2 112.1,61.4 91.2,38.7 		"/>
		<polygon class="st0" points="123.8,24.2 122.3,24.9 143.5,46.7 145.3,45.9 		"/>
		<path class="st0" d="M128,96.1l8.4,3.3c2.1,0.8,3.1,3.2,2.3,5.3c-0.6,1.6-2.1,2.6-3.8,2.6c-0.5,0-1-0.1-1.5-0.3l-8.6-3.4l-8.3-3.3
			c-2.1-0.9-3-3.4-2-5.4c0.9-1.9,3-2.9,5-2.2L128,96.1"/>
		<path class="st0" d="M160.5,102.8l-18-1.9c-2.3-0.2-3.9-2.2-3.7-4.5c0.2-2.1,2-3.7,4.1-3.7h0.4l18,1.9c2.3,0.2,3.9,2.2,3.7,4.5
			c-0.2,2.1-2,3.7-4.1,3.7C160.8,102.8,160.7,102.8,160.5,102.8z"/>
		<path class="st0" d="M119.3,111.7l-18,2.4c-2.2,0.3-4.3-1.3-4.6-3.5c0-0.2,0-0.4,0-0.6c0-2,1.5-3.8,3.6-4.1l18-2.4
			c2.2-0.3,4.3,1.3,4.6,3.5c0,0,0,0,0,0c0,0.2,0,0.4,0,0.6C122.8,109.6,121.3,111.4,119.3,111.7z"/>
		<path class="st0" d="M128,96.1L128,96.1c-1.4,0.6-2.5,1.6-3.2,3c-0.6,1.4-0.6,3.1,0,4.5"/>
		<path class="st0" d="M48.2,91.3L37,90.1c-2.3-0.2-3.9-2.2-3.7-4.5c0.2-2.1,2-3.7,4.1-3.7h0.4l9.8,1l8.3,0.9c1.3,0.2,2.5,1,3.1,2.2
			"/>
		<rect y="0" class="st0" width="188.5" height="154.5"/>
		<text transform="matrix(1 0 0 1 24.23 142.12)" class="st0 st1 st2">pil</text>
		<text transform="matrix(1 0 0 1 37.11 142.12)" class="st0 st1 st2">l</text>
		<text transform="matrix(1 0 0 1 40.08 142.12)" class="st0 st1 st2"> o</text>
		<text transform="matrix(1 0 0 1 49.42 142.12)" class="st0 st1 st2">r</text>
		<text transform="matrix(1 0 0 1 53.25 142.12)" class="st0 st1 st2">gani</text>
		<text transform="matrix(1 0 0 1 75.6 142.12)" class="st0 st1 st2">z</text>
		<text transform="matrix(1 0 0 1 80.87 142.12)" class="st0 st1 st2">e</text>
		<text transform="matrix(1 0 0 1 87.41 142.12)" class="st0 st1 st2">r</text>
		<text transform="matrix(1 0 0 1 96.12 142.03)" class="st0 st3 st4">counting pills</text>
	</g>
</g>
</svg>
