<svg xmlns="http://www.w3.org/2000/svg" viewBox="0 0 188.5 154.5"><defs><style>.cls-1,.cls-2{fill:none;}.cls-1{stroke:#fff;stroke-miterlimit:10;stroke-width:0.8px;}</style></defs><title>kettleAsset 2</title><g id="Layer_2" data-name="Layer 2"><g id="Layer_1-2" data-name="Layer 1"><path class="cls-1" d="M37.35,17.17l7,11.9L40.47,96.75c0,.26-.45,3.67.53,4.72,16.13,17.31,94.51,13.71,97-3.26.38-2.58-.41-11.33-.44-12-.15-4.2-3.43-39.47-5.59-57.94,10.16-.27,16.74-1.27,18.42.81,2.51,3.1,1.95,6.44,2.23,14,.48,11,.73,23.45,1.2,34.43a3.32,3.32,0,0,0,2.82,3.14l8.09-.08a1.11,1.11,0,0,0,1.09-1.16L164.2,31.66c0-5.43-.32-7.8-1.36-9.42-4.83-7.53-32.86-8-32.86-8-16.54.12-33.09-.81-49.62-.18-9.44.36-24,.88-42.09,1.4A1.11,1.11,0,0,0,37.35,17.17Z"/><path class="cls-1" d="M49.23,15.17c11.41,1.15,23.9,2.14,37.34,2.22,15.19.08,29.21-1.83,41.86-3.1"/><path class="cls-1" d="M44.17,31.64A402.85,402.85,0,0,0,89,34.06a402.78,402.78,0,0,0,43.26-2.42"/><path class="cls-1" d="M41.27,103.63l-1.74,9.89a2.23,2.23,0,0,0,1.18,2.39c14.81,7.55,31.28,9.35,49.2,9.22,17.16-.12,36.89-3.09,47.7-9.29a2.18,2.18,0,0,0,1.09-2L138,103.48"/><path class="cls-1" d="M136.25,101.79c1.16.59,1.78,1.21,1.78,1.84,0,1.93-5.65,3.67-14.74,4.92"/><path class="cls-1" d="M52.33,108c-6.93-1.18-11.09-2.7-11.09-4.36a1.62,1.62,0,0,1,.75-1.2"/><rect class="cls-2" width="188.5" height="154.5"/></g></g></svg>