<svg xmlns="http://www.w3.org/2000/svg" viewBox="0 0 191.28 191.78"><defs><style>.cls-1,.cls-5{fill:none;}.cls-1,.cls-2{stroke:#231f20;stroke-miterlimit:10;}.cls-2,.cls-4{fill:#fff;}.cls-3{fill:#231f20;}</style></defs><title>Asset 15</title><g id="Layer_2" data-name="Layer 2"><g id="Layer_1-2" data-name="Layer 1"><path class="cls-1" d="M136.83,185H54.45a5,5,0,0,1-5-4.72l-5-80.27H146.84l-5,80.27A5,5,0,0,1,136.83,185Z"/><path class="cls-2" d="M54.18,190.59a9.82,9.82,0,0,1-9.77-9.84v-3.64a.89.89,0,0,1,.89-.89H146a.89.89,0,0,1,.89.89v3.64a9.91,9.91,0,0,1-9.86,9.84"/><circle class="cls-3" cx="92.05" cy="183.37" r="0.82"/><circle class="cls-3" cx="99.24" cy="183.37" r="0.82"/><circle class="cls-3" cx="95.64" cy="180.67" r="0.82"/><circle class="cls-3" cx="95.64" cy="186.07" r="0.82"/><circle class="cls-3" cx="95.64" cy="183.37" r="0.82"/><path class="cls-1" d="M95.27,77.41a122.17,122.17,0,0,1,0-56.15"/><path class="cls-1" d="M94.86,21c-1.41,1.15-6.91-1.94-9.43-6.66C83.77,11.23,84.51,6,84.51,6c1.06-.13,5.67,3,7.95,6.66C94.06,15.27,96.16,20,94.86,21Z"/><path class="cls-1" d="M95.67,21c1.41,1.15,6.92-1.94,9.43-6.66C106.76,11.23,106,6,106,6c-1.06-.13-5.67,3-8,6.66C96.47,15.27,94.38,20,95.67,21Z"/><path class="cls-4" d="M151.63,75.06a4.52,4.52,0,0,1,.54,2.1V96.4a7.25,7.25,0,0,1-.93,3.55c-.12.2-.26.41-.39.61-4.49,1-27.49,1.76-55.2,1.76s-50.72-.77-55.22-1.76c-.13-.2-.27-.41-.38-.61a7.15,7.15,0,0,1-.94-3.55V77.16a4.52,4.52,0,0,1,.54-2.1c.44,1.16,25.33,2.1,56,2.1S151.19,76.22,151.63,75.06Z"/><path class="cls-4" d="M151.55,74.91c.06,0,.11.08.11.13l0,0S151.58,75,151.55,74.91Z"/><path class="cls-4" d="M151.55,74.91s0,.11.08.15c-.44,1.16-25.33,2.1-56,2.1s-55.56-.94-56-2.1a.71.71,0,0,0,.08-.15c1.72-1.11,26.09-2,55.92-2S149.83,73.8,151.55,74.91Z"/><path class="cls-4" d="M39.73,74.91a.71.71,0,0,1-.08.15l0,0C39.62,75,39.67,75,39.73,74.91Z"/><path class="cls-1" d="M151.24,100a7.25,7.25,0,0,0,.93-3.55V77.16a4.52,4.52,0,0,0-.54-2.1"/><path class="cls-1" d="M151.24,100c-.12.2-.26.41-.39.61"/><path class="cls-1" d="M151.55,74.91s0,.11.08.15"/><path class="cls-1" d="M39.65,75.06a4.52,4.52,0,0,0-.54,2.1V96.4a7.15,7.15,0,0,0,.94,3.55"/><path class="cls-1" d="M39.65,75.06a.71.71,0,0,0,.08-.15"/><path class="cls-1" d="M40.05,100c.11.2.25.41.38.61"/><path class="cls-1" d="M39.73,74.91c1.72-1.11,26.09-2,55.92-2s54.18.89,55.9,2"/><path class="cls-1" d="M39.65,75.06l0,0c0-.05.05-.09.11-.13"/><path class="cls-1" d="M151.55,74.91c.06,0,.11.08.11.13l0,0"/><path class="cls-1" d="M39.65,75.06c.44,1.16,25.33,2.1,56,2.1s55.54-.94,56-2.1"/><path class="cls-1" d="M150.85,100.56c-4.49,1-27.49,1.76-55.2,1.76s-50.72-.77-55.22-1.76"/><path class="cls-1" d="M150.85,100.56c.2,0,.46-.59.48-.79"/><path class="cls-1" d="M40.48,100.55c-.19,0-.46-.58-.48-.79"/><path class="cls-1" d="M137.11,190.59c-10.24.42-25,.69-41.47.69-17,0-32.24-.28-42.51-.74"/><rect class="cls-5" width="191.28" height="191.28"/></g></g></svg>