<svg xmlns="http://www.w3.org/2000/svg" viewBox="0 0 191.28 191.28"><defs><style>.cls-1,.cls-2{fill:none;}.cls-1{stroke:#231f20;stroke-miterlimit:10;}</style></defs><title>Asset 17</title><g id="Layer_2" data-name="Layer 2"><g id="Layer_1-2" data-name="Layer 1"><line class="cls-1" x1="8.45" y1="150.95" x2="16.12" y2="161.49"/><line class="cls-1" x1="20.6" y1="167.63" x2="16.12" y2="161.49"/><line class="cls-1" x1="20.6" y1="167.63" x2="30.54" y2="181.28"/><line class="cls-1" x1="30.54" y1="150.95" x2="30.54" y2="181.28"/><line class="cls-1" x1="30.54" y1="109.76" x2="30.54" y2="150.95"/><line class="cls-1" x1="182.83" y1="181.28" x2="182.83" y2="109.76"/><line class="cls-1" x1="117.73" y1="181.28" x2="182.83" y2="181.28"/><line class="cls-1" x1="95.64" y1="181.28" x2="30.54" y2="181.28"/><line class="cls-1" x1="8.45" y1="79.43" x2="8.45" y2="150.95"/><line class="cls-1" x1="8.45" y1="79.43" x2="16.12" y2="89.97"/><line class="cls-1" x1="30.54" y1="109.76" x2="22.16" y2="98.26"/><line class="cls-1" x1="182.83" y1="109.76" x2="174.15" y2="97.83"/><line class="cls-1" x1="22.16" y1="98.26" x2="16.12" y2="89.97"/><line class="cls-1" x1="168.5" y1="90.08" x2="174.15" y2="97.83"/><line class="cls-1" x1="168.5" y1="90.08" x2="160.74" y2="79.43"/><line class="cls-1" x1="182.83" y1="109.76" x2="160.74" y2="109.76"/><line class="cls-1" x1="160.74" y1="109.76" x2="117.73" y2="109.76"/><line class="cls-1" x1="30.54" y1="109.76" x2="95.64" y2="109.76"/><line class="cls-1" x1="160.74" y1="79.43" x2="95.64" y2="79.43"/><line class="cls-1" x1="73.55" y1="79.43" x2="8.45" y2="79.43"/><line class="cls-1" x1="103.12" y1="89.7" x2="109.05" y2="97.83"/><line class="cls-1" x1="86.95" y1="97.83" x2="95.64" y2="109.76"/><line class="cls-1" x1="103.12" y1="89.7" x2="95.64" y2="79.43"/><line class="cls-1" x1="109.05" y1="97.83" x2="117.73" y2="109.76"/><line class="cls-1" x1="73.55" y1="79.43" x2="81.03" y2="89.7"/><line class="cls-1" x1="81.03" y1="89.7" x2="86.95" y2="97.83"/><line class="cls-1" x1="73.55" y1="79.43" x2="95.64" y2="79.43"/><line class="cls-1" x1="95.64" y1="181.28" x2="95.64" y2="150.95"/><line class="cls-1" x1="95.64" y1="109.76" x2="95.64" y2="150.95"/><line class="cls-1" x1="117.73" y1="150.95" x2="117.73" y2="109.76"/><line class="cls-1" x1="117.73" y1="181.28" x2="117.73" y2="150.95"/><line class="cls-1" x1="95.64" y1="181.28" x2="117.73" y2="181.28"/><line class="cls-1" x1="95.64" y1="109.76" x2="117.73" y2="109.76"/><line class="cls-1" x1="103.12" y1="89.7" x2="160.74" y2="89.7"/><line class="cls-1" x1="174.15" y1="97.83" x2="160.74" y2="97.83"/><line class="cls-1" x1="81.03" y1="89.7" x2="16.12" y2="89.7"/><line class="cls-1" x1="109.05" y1="97.83" x2="160.74" y2="97.83"/><polyline class="cls-1" points="168.5 90.08 174.32 97.83 174.15 97.83"/><line class="cls-1" x1="86.95" y1="97.83" x2="22.23" y2="97.83"/><polyline class="cls-1" points="168.5 90.08 168.22 89.7 160.74 89.7"/><polyline class="cls-1" points="20.6 167.63 22.16 169.74 22.16 150.96"/><line class="cls-1" x1="22.16" y1="150.95" x2="22.16" y2="98.26"/><line class="cls-1" x1="16.12" y1="89.7" x2="16.12" y2="89.97"/><line class="cls-1" x1="16.12" y1="89.97" x2="16.12" y2="150.95"/><line class="cls-1" x1="16.12" y1="161.49" x2="16.12" y2="150.95"/><rect class="cls-2" width="191.28" height="191.28"/></g></g></svg>