<svg xmlns="http://www.w3.org/2000/svg" viewBox="0 0 87.64 157.48"><defs><style>.cls-1{fill:none;stroke:#231f20;stroke-miterlimit:10;}.cls-2{fill:#231f20;}</style></defs><title>Asset 7</title><g id="Layer_2" data-name="Layer 2"><g id="Layer_1-2" data-name="Layer 1"><path class="cls-1" d="M12.26,12.26A5.94,5.94,0,0,1,16.5,10.5H77.14"/><path class="cls-1" d="M10.5,147v4a6,6,0,0,0,1.25,3.66"/><path class="cls-1" d="M77.14,10.5h4a6,6,0,0,1,6,6V151a6,6,0,0,1-6,6H16.5a6,6,0,0,1-4.75-2.34"/><path class="cls-1" d="M10.5,147V16.5a5.94,5.94,0,0,1,1.76-4.24"/><path class="cls-1" d="M74.58,1.59A5.94,5.94,0,0,0,71.14.5H6.5a6,6,0,0,0-6,6V141a6,6,0,0,0,2.34,4.75"/><path class="cls-1" d="M74.58,1.59a6.26,6.26,0,0,1,1.48,1.47"/><line class="cls-1" x1="12.26" y1="12.26" x2="12.37" y2="12.37"/><line class="cls-1" x1="12.26" y1="12.26" x2="2.37" y2="2.37"/><line class="cls-1" x1="74.48" y1="1.49" x2="74.58" y2="1.59"/><line class="cls-1" x1="76.06" y1="3.06" x2="84.48" y2="11.49"/><line class="cls-1" x1="74.58" y1="1.59" x2="76.06" y2="3.06"/><line class="cls-1" x1="12.25" y1="155.13" x2="11.75" y2="154.64"/><line class="cls-1" x1="2.84" y1="145.73" x2="11.75" y2="154.64"/><line class="cls-1" x1="2.25" y1="145.13" x2="2.84" y2="145.73"/><path class="cls-1" d="M60.88,93.21A12,12,0,0,0,44,110.09"/><path class="cls-1" d="M60.88,93.21A12,12,0,1,1,44,110.09"/><path class="cls-1" d="M60.88,93.21A12,12,0,1,0,44,110.09"/><path class="cls-1" d="M60.88,123.21A12,12,0,1,1,44,140.09"/><path class="cls-1" d="M60.88,123.21A12,12,0,0,0,44,140.09"/><path class="cls-1" d="M60.88,123.21A12,12,0,1,0,44,140.09"/><path class="cls-1" d="M35.05,61.08A9.09,9.09,0,1,1,22.29,73.84"/><path class="cls-1" d="M35.05,61.08A9.08,9.08,0,0,0,22.29,73.84"/><path class="cls-1" d="M35.05,61.08A9.09,9.09,0,1,0,22.29,73.84"/><path class="cls-1" d="M82.59,61.08A9.09,9.09,0,0,0,69.83,73.84"/><path class="cls-1" d="M82.59,61.08A9.09,9.09,0,1,1,69.83,73.84"/><path class="cls-1" d="M82.59,61.08A9.09,9.09,0,1,0,69.83,73.84"/><path class="cls-1" d="M58.82,61.08A9.08,9.08,0,0,0,46.06,73.84"/><path class="cls-1" d="M58.82,61.08A9.09,9.09,0,1,1,46.06,73.84"/><path class="cls-1" d="M58.82,61.08A9.09,9.09,0,1,0,46.06,73.84"/><circle class="cls-2" cx="43.76" cy="36.45" r="1.98"/><circle class="cls-2" cx="61.12" cy="36.45" r="1.98"/><circle class="cls-2" cx="52.44" cy="29.94" r="1.98"/><circle class="cls-2" cx="52.44" cy="42.97" r="1.98"/><circle class="cls-2" cx="52.44" cy="36.45" r="1.98"/></g></g></svg>