<svg xmlns="http://www.w3.org/2000/svg" viewBox="0 0 188.5 154.5"><defs><style>.cls-1,.cls-2{fill:none;}.cls-1{stroke:#fff;stroke-miterlimit:10;stroke-width:0.8px;}.cls-3{font-size:11px;font-family:Raleway-SemiBold, Raleway;font-weight:600;}.cls-3,.cls-8{fill:#fff;}.cls-4{letter-spacing:-0.03em;}.cls-5{letter-spacing:-0.03em;}.cls-6{letter-spacing:-0.01em;}.cls-7{letter-spacing:-0.02em;}.cls-8{font-size:9px;font-family:ArialMT, Arial;}</style></defs><title>PILLBOXAsset 1</title><g id="Layer_2" data-name="Layer 2"><g id="Layer_1-2" data-name="Layer 1"><polyline class="cls-1" points="74.38 79.08 61.01 85.32 59.12 86.2 48.19 91.3"/><polyline class="cls-1" points="55.16 54.48 89.65 39.21 123.77 24.1 151.81 11.68 174.15 32.57 143.58 46.82 112.09 61.5 76.2 78.23"/><polyline class="cls-1" points="48.19 91.3 34.31 97.76 29.7 91.34 15.77 71.93 53.63 55.16"/><polyline class="cls-1" points="174.15 32.57 174.15 56.3 37.68 122.82 19.96 97.76 15.77 71.93"/><line class="cls-1" x1="34.31" y1="97.76" x2="37.68" y2="122.82"/><polygon class="cls-1" points="53.63 33.81 50.56 54.72 15.77 69.56 16.09 67.4 19.12 47.27 51.91 34.48 53.63 33.81"/><polygon class="cls-1" points="51.91 34.48 49.14 53.3 16.09 67.4 14.35 68.14 17.71 45.86 52.21 32.4 51.91 34.48"/><line class="cls-1" x1="17.71" y1="45.86" x2="19.12" y2="47.27"/><line class="cls-1" x1="52.21" y1="32.4" x2="53.63" y2="33.82"/><line class="cls-1" x1="14.35" y1="68.14" x2="15.76" y2="69.56"/><polygon class="cls-1" points="53.63 55.16 74.38 79.08 76.2 78.23 55.16 54.48 53.63 55.16"/><polyline class="cls-1" points="34.62 89.04 34.59 89.05 29.7 91.34 29.7 91.34"/><polyline class="cls-1" points="53.63 55.16 55.89 79.08 47.55 82.98"/><line class="cls-1" x1="55.89" y1="79.08" x2="61.01" y2="85.32"/><polygon class="cls-1" points="89.69 39.31 110.24 62.23 112.05 61.41 91.21 38.66 89.69 39.31"/><polygon class="cls-1" points="123.82 24.21 122.33 24.91 143.53 46.73 145.3 45.87 123.82 24.21"/><path class="cls-1" d="M128.05,96.14l8.39,3.33a4.11,4.11,0,0,1-1.52,7.92,4,4,0,0,1-1.51-.29l-8.58-3.42-8.26-3.28a4.1,4.1,0,0,1,1.52-7.92,4.06,4.06,0,0,1,1.51.3Z"/><path class="cls-1" d="M160.52,102.78l-18-1.88a4.1,4.1,0,0,1,.42-8.18l.43,0,18,1.88a4.11,4.11,0,0,1-.43,8.19A3,3,0,0,1,160.52,102.78Z"/><path class="cls-1" d="M119.28,111.65l-18,2.45a4.1,4.1,0,0,1-4.62-3.51,5.27,5.27,0,0,1,0-.56,4.11,4.11,0,0,1,3.55-4.06l18-2.45a4.1,4.1,0,0,1,4.61,3.52,3.52,3.52,0,0,1,0,.56A4.09,4.09,0,0,1,119.28,111.65Z"/><path class="cls-1" d="M128.05,96.14a5.71,5.71,0,0,0-3.22,7.54"/><path class="cls-1" d="M48.19,91.29,37,90.12a4,4,0,0,1-2.37-1.07,4.1,4.1,0,0,1,2.79-7.11l.43,0,9.75,1,8.27.87A4.09,4.09,0,0,1,59,86"/><rect class="cls-2" width="188.5" height="154.5"/><text class="cls-3" transform="translate(23.12 142.44)">pil<tspan class="cls-4" x="12.88" y="0">l</tspan><tspan x="15.85" y="0" xml:space="preserve"> o</tspan><tspan class="cls-5" x="25.19" y="0">r</tspan><tspan x="29.02" y="0">gani</tspan><tspan class="cls-6" x="51.37" y="0">z</tspan><tspan x="56.64" y="0">e</tspan><tspan class="cls-7" x="63.18" y="0">r</tspan></text><text class="cls-8" transform="translate(96.12 142.03)">counting pills</text></g></g></svg>