<svg xmlns="http://www.w3.org/2000/svg" viewBox="0 0 30 30"><defs><style>.cls-1,.cls-2{fill:none;}.cls-1{stroke:#fff;stroke-miterlimit:10;stroke-width:0.8px;}</style></defs><title>intrAsset 34</title><g id="Layer_2" data-name="Layer 2"><g id="selected"><path class="cls-1" d="M5.12,18.28l5.28-6.83a14.8,14.8,0,0,1,1.48-2.29c.48-.46,1.26.58,1.42.66a6,6,0,0,1,1.38-1.56c.38-.23,1.5.16,1.8.19,0,0,1-1.18,1.67-1.3a1.89,1.89,0,0,1,1.57.95"/><path class="cls-1" d="M16.57,11.58A23.28,23.28,0,0,1,18.4,9.4a22.71,22.71,0,0,1,1.85-1.76c.59-.46,1.2-1,1.81-1.51.33-.28.64-.57.94-.85a.67.67,0,0,1,.59,0,.75.75,0,0,1,0,1.06L21.69,9.27a17.27,17.27,0,0,0-1,1.48,17,17,0,0,0-1.08,2.11l-1,1.66-.81,2.27a7.85,7.85,0,0,0,1.18-.7,7.73,7.73,0,0,0,1.12-1l1.33-.92a2.7,2.7,0,0,1,1.88-.64,2.62,2.62,0,0,1,.86.22c.58.28.71.53.72.7,0,.43-.72.66-1.53,1.34a6.08,6.08,0,0,0-1.25,1.48l-2.55,1.61-1.36,1.36a19.3,19.3,0,0,1-5,2.4,9.74,9.74,0,0,1-2.75.1l-2.84,2"/><line class="cls-1" x1="13.3" y1="9.82" x2="12.48" y2="10.87"/><line class="cls-1" x1="16.48" y1="8.45" x2="14.93" y2="10.54"/><rect class="cls-2" width="30" height="30"/></g></g></svg>