<?xml version="1.0" encoding="utf-8"?>
<!-- Generator: Adobe Illustrator 23.0.1, SVG Export Plug-In . SVG Version: 6.00 Build 0)  -->
<svg version="1.1" id="Layer_1" xmlns="http://www.w3.org/2000/svg" xmlns:xlink="http://www.w3.org/1999/xlink" x="0px" y="0px"
	 viewBox="0 0 71 71" style="enable-background:new 0 0 71 71;" xml:space="preserve">
<style type="text/css">
	.st0{fill:none;stroke:#FFFFFF;stroke-miterlimit:10;}
</style>
<title>icon-pitchAsset 2</title>
<g>
	<g id="selected">
		<circle class="st0" cx="35.5" cy="35.5" r="35"/>
		<path class="st0" d="M52.2,16.7c-2.3,0-3.3,6.5-4.4,13.5c-1,6.1-2,13.1-3.9,13.1S41,38.7,40,34.2c-1.1-4.9-2.1-9.5-4.4-9.5
			s-3.3,4.6-4.4,9.5c-1,4.5-2,9.1-3.9,9.1s-2.9-2.7-3.9-5.3c-1-2.8-2.1-5.7-4.4-5.7s-3.3,2.9-4.4,5.7c-1,2.6-2,5.3-3.9,5.3l0,0
			c-0.1,0-0.2,0.1-0.2,0.2l0,0c0,0.1,0.1,0.2,0.2,0.2l0,0c2.2,0,3.3-2.9,4.4-5.6s2-5.3,3.9-5.3s2.9,2.7,3.9,5.3
			c1.1,2.8,2.1,5.6,4.4,5.6s3.3-4.6,4.4-9.5c1-4.5,2-9.1,3.9-9.1s2.9,4.6,3.9,9.1c1.1,4.9,2.1,9.5,4.4,9.5s3.3-6.2,4.4-13.5
			c1-6.1,2-13.1,3.9-13.1c0.1,0,0.2-0.1,0.2-0.2C52.4,16.8,52.3,16.7,52.2,16.7z"/>
	</g>
</g>
</svg>
