<?xml version="1.0" encoding="utf-8"?>
<!-- Generator: Adobe Illustrator 23.0.1, SVG Export Plug-In . SVG Version: 6.00 Build 0)  -->
<svg version="1.1" id="Layer_1" xmlns="http://www.w3.org/2000/svg" xmlns:xlink="http://www.w3.org/1999/xlink" x="0px" y="0px"
	 viewBox="0 0 55 55" style="enable-background:new 0 0 55 55;" xml:space="preserve">
<style type="text/css">
	.st0{font-family:'KozGoPr6N-Regular-83pv-RKSJ-H';}
	.st1{font-size:13.52px;}
	.st2{fill:none;stroke:#000000;stroke-width:0.5;stroke-miterlimit:10;}
	.st3{fill:none;stroke:url(#SVGID_1_);stroke-width:1.5;stroke-miterlimit:10;}
	.st4{fill:none;stroke:url(#SVGID_2_);stroke-width:1.5;stroke-miterlimit:10;}
	.st5{fill:none;}
</style>
<title>Asset 17</title>
<g>
	<g id="Layer_1-2">
		<text transform="matrix(1 0 0 1 41.2 23.89)" class="st0 st1">♪</text>
		<text transform="matrix(1 0 0 1 41.2 23.89)" class="st2 st0 st1">♪</text>
		
			<linearGradient id="SVGID_1_" gradientUnits="userSpaceOnUse" x1="15.6216" y1="26.9317" x2="18.6918" y2="15.4807" gradientTransform="matrix(1 0 0 -1 0 55.276)">
			<stop  offset="0" style="stop-color:#161616"/>
			<stop  offset="1" style="stop-color:#111111"/>
		</linearGradient>
		<polyline class="st3" points="10,41.9 10,38.4 13.8,38.4 13.8,34.8 17.6,34.8 17.6,31.3 21.5,31.3 21.5,27.7 25.3,27.7 		"/>
		
			<linearGradient id="SVGID_2_" gradientUnits="userSpaceOnUse" x1="29.5785" y1="41.6404" x2="32.7493" y2="29.8277" gradientTransform="matrix(1 0 0 -1 0 55.276)">
			<stop  offset="0" style="stop-color:#161616"/>
			<stop  offset="1" style="stop-color:#111111"/>
		</linearGradient>
		<polyline class="st4" points="24.4,27.5 24.4,23.9 28,23.9 28,20.3 31.6,20.3 31.6,16.7 35.2,16.7 35.2,13.1 38.8,13.1 		"/>
		<rect y="0" class="st5" width="55" height="55"/>
	</g>
</g>
</svg>
